<?xml version="1.0" encoding="utf-8"?>
<!-- Generator: Adobe Illustrator 23.0.6, SVG Export Plug-In . SVG Version: 6.00 Build 0)  -->
<svg version="1.1" id="Warstwa_1" xmlns="http://www.w3.org/2000/svg" xmlns:xlink="http://www.w3.org/1999/xlink" x="0px" y="0px"
	 viewBox="0 0 707.1 200" style="enable-background:new 0 0 707.1 200;" xml:space="preserve">
<style type="text/css">
	.st0{fill:#ED1C24;}
	.st1{fill:#FFFFFF;}
	.st2{opacity:4.000000e-02;stroke:#FFFFFF;stroke-miterlimit:10;enable-background:new    ;}
	.st3{opacity:8.000000e-02;stroke:#FFFFFF;stroke-miterlimit:10;enable-background:new    ;}
	.st4{fill-opacity:0;}
	.st5{font-family:'Roboto-Black';}
	.st6{font-size:168.4844px;}
	.st7{letter-spacing:16;}
</style>
<polygon class="st0" points="0,150 0,50 86.6,0 173.2,50 173.2,150 86.6,200 "/>
<polygon class="st1" points="86.6,133.3 57.7,116.7 57.7,83.3 86.6,66.7 115.5,83.3 144.3,66.7 86.6,33.3 28.9,66.7 28.9,133.3 
	86.6,166.7 144.3,133.3 115.5,116.7 "/>
<polygon class="st2" points="0,50 86.6,100 86.6,0 "/>
<polygon class="st2" points="0,150 86.6,200 86.6,100 "/>
<polygon class="st3" points="86.6,100 173.2,150 173.2,50 "/>
<polygon class="st4" points="86.6,100 0,50 0,150 "/>
<polygon class="st3" points="173.2,150 86.6,100 86.6,200 "/>
<polygon class="st3" points="173.2,50 86.6,0 86.6,100 "/>
<text transform="matrix(1 0 0 1 217.3204 162.5137)" class="st5 st6 st7">LOGO</text>
</svg>
