<?xml version="1.0" encoding="UTF-8"?>
<svg width="23px" height="40px" viewBox="0 0 23 40" version="1.1" xmlns="http://www.w3.org/2000/svg" xmlns:xlink="http://www.w3.org/1999/xlink">
    <!-- Generator: sketchtool 59.1 (101010) - https://sketch.com -->
    <title>7146A3F7-4B8D-425A-89CB-5E8713985E47</title>
    <desc>Created with sketchtool.</desc>
    <g id="Page-2" stroke="none" stroke-width="1" fill="none" fill-rule="evenodd">
        <g id="Homepage---Full" transform="translate(-240.000000, -2031.000000)">
            <g id="Big-icon/Alcohol" transform="translate(232.000000, 2031.000000)">
                <g id="Group-8">
                    <rect id="Rectangle" x="0" y="0" width="40" height="40"></rect>
                    <g id="flask" transform="translate(8.000000, 0.000000)" fill="#7C6A6A" fill-rule="nonzero">
                        <path d="M15.7534543,36.1736093 C14.1395337,37.8889147 11.9595256,38.8336545 9.61492306,38.8336545 C4.9514913,38.8336545 1.15756263,35.0106074 1.15756263,30.311557 C1.15756263,28.3342127 1.84480033,26.4075655 3.09272398,24.88634 C3.29644143,24.6381417 3.26171686,24.2705096 3.01540396,24.0653105 C2.76909105,23.8601893 2.40417447,23.8949464 2.20061136,24.1432224 C0.781534183,25.8729905 0,28.0635428 0,30.311557 C0,35.653808 4.31325382,40 9.61484589,40 C12.2803034,40 14.7586341,38.9260291 16.5933257,36.976055 C16.8133251,36.7423194 16.8035251,36.3732099 16.571565,36.1516043 C16.3396821,35.9300764 15.9732994,35.9399514 15.7534543,36.1736093 L15.7534543,36.1736093 Z" id="Path"></path>
                        <path d="M12.6772777,20.9603768 L12.6772777,10.4551106 L13.5747577,10.4551106 C14.331335,10.4551106 14.9469313,9.84250106 14.9469313,9.08959452 L14.9469313,7.17748188 C14.9469313,6.42457533 14.331335,5.81196581 13.5747577,5.81196581 L12.5773835,5.81196581 C12.2525312,5.81196581 11.989309,6.07398884 11.989309,6.39718698 C11.989309,6.72038513 12.2525312,6.98240815 12.5773835,6.98240815 L13.5747577,6.98240815 C13.682885,6.98240815 13.7707825,7.06995724 13.7707825,7.17748188 L13.7707825,9.08959452 C13.7707825,9.19711915 13.682885,9.28466824 13.5747577,9.28466824 L5.85977016,9.28466824 C5.75164288,9.28466824 5.66374535,9.19711915 5.66374535,9.08959452 L5.66374535,7.17748188 C5.66374535,7.06995724 5.75164288,6.98240815 5.85977016,6.98240815 L10.2250858,6.98240815 C10.5499381,6.98240815 10.8131602,6.72038513 10.8131602,6.39718698 C10.8131602,6.07398884 10.5499381,5.81196581 10.2250858,5.81196581 L5.85977016,5.81196581 C5.10319282,5.81196581 4.48759651,6.42457533 4.48759651,7.17748188 L4.48759651,9.08959452 C4.48759651,9.84250106 5.10319282,10.4551106 5.85977016,10.4551106 L6.75725013,10.4551106 L6.75725013,20.9602988 C5.77265673,21.2709342 4.84843898,21.7340392 4.00459139,22.3401723 C3.74129087,22.5293157 3.68185615,22.895118 3.87200021,23.157219 C4.06214427,23.4194762 4.42988681,23.4782324 4.69303051,23.2892449 C5.54393499,22.67804 6.48728477,22.2324135 7.49689093,21.9645383 C7.75431071,21.8962625 7.93347738,21.6642028 7.93347738,21.3990586 L7.93347738,10.4551106 L11.5011289,10.4551106 L11.5011289,21.3991366 C11.5011289,21.6642808 11.6802955,21.8963405 11.9377153,21.9646163 C17.3320828,23.3955211 19.9250989,29.5125649 17.2506933,34.3460236 C17.0940302,34.6291146 17.1976097,34.9850071 17.4821594,35.140988 C17.7664737,35.296891 18.1243366,35.193736 18.2809996,34.910645 C19.0700387,33.4845 19.4871795,31.865076 19.4871795,30.2274711 C19.4871795,25.9799358 16.7091159,22.2324135 12.6772777,20.9603768 L12.6772777,20.9603768 Z" id="Path"></path>
                        <path d="M13.3333708,4.44444444 C14.4644176,4.44444444 15.3846154,3.4475635 15.3846154,2.22226281 C15.3846154,0.996880942 14.4644176,0 13.3333708,0 C12.2022491,0 11.2820513,0.996880942 11.2820513,2.22226281 C11.2821262,3.4475635 12.202324,4.44444444 13.3333708,4.44444444 Z M13.3333708,1.21758929 C13.8446834,1.21758929 14.2606868,1.66825968 14.2606868,2.22226281 C14.2606868,2.77618477 13.8446834,3.22685515 13.3333708,3.22685515 C12.8220582,3.22685515 12.4059799,2.77618477 12.4059799,2.22226281 C12.4060548,1.66825968 12.8220582,1.21758929 13.3333708,1.21758929 Z" id="Shape"></path>
                        <path d="M20.1709402,3.76068376 C19.0398391,3.76068376 18.1196581,4.7575465 18.1196581,5.98290598 C18.1196581,7.20826547 19.0398391,8.20512821 20.1709402,8.20512821 C21.3020412,8.20512821 22.2222222,7.20826547 22.2222222,5.98290598 C22.2222222,4.7575465 21.3020412,3.76068376 20.1709402,3.76068376 Z M20.1709402,6.98756115 C19.6596369,6.98756115 19.2435662,6.53689899 19.2435662,5.98290598 C19.2435662,5.42891297 19.6596369,4.97825082 20.1709402,4.97825082 C20.6822434,4.97825082 21.0983142,5.42891297 21.0983142,5.98290598 C21.0983142,6.53689899 20.6822434,6.98756115 20.1709402,6.98756115 Z" id="Shape"></path>
                        <path d="M2.62087232,28.2311486 C2.45414057,28.8987651 2.37838837,29.5920256 2.39553836,30.2915581 C2.49566969,34.3476718 5.72771237,37.6068376 9.66175108,37.6068376 C12.9820047,37.6068376 15.9292652,35.2462428 16.7313926,31.9008561 C16.8401374,31.4481567 16.5075968,31.010145 16.0552369,31.010145 L14.4842824,31.010145 C13.6037111,31.010145 12.8131965,30.5080631 12.4170548,29.6985711 C12.4145169,29.6928548 12.411979,29.6872179 12.4092104,29.6816604 C11.8195737,28.4545608 10.6285338,27.6923077 9.30075531,27.6923077 L3.29518227,27.6923077 C2.97717684,27.6923077 2.69985456,27.9140526 2.62087232,28.2311486 L2.62087232,28.2311486 Z M3.66010024,28.8832041 L9.30090912,28.8832041 C10.1814804,28.8832041 10.971995,29.385286 11.3681367,30.1947779 C11.3705977,30.2004942 11.3732125,30.2061312 11.3759811,30.2116887 C11.9656178,31.4387883 13.1566577,32.2010414 14.4844362,32.2010414 L15.4412211,32.2010414 C14.5574967,34.7761563 12.1178913,36.5174056 9.43003394,36.4113364 C6.21429529,36.2848632 3.63095295,33.5833545 3.54889447,30.2613094 C3.5373586,29.7955101 3.57465791,29.3335217 3.66010024,28.8832041 L3.66010024,28.8832041 Z" id="Shape"></path>
                    </g>
                </g>
            </g>
        </g>
    </g>
</svg>