<?xml version="1.0" encoding="UTF-8"?>
<svg width="15px" height="15px" viewBox="0 0 15 15" version="1.1" xmlns="http://www.w3.org/2000/svg" xmlns:xlink="http://www.w3.org/1999/xlink">
    <!-- Generator: Sketch 53.2 (72643) - https://sketchapp.com -->
    <title>icon color</title>
    <desc>Created with Sketch.</desc>
    <defs>
        <path d="M14.1875,0 L0.8125,0 C0.366576211,0.00670675279 0.00670675279,0.366576211 0,0.8125 L0,14.1875 C0.00670675279,14.6334238 0.366576211,14.9932932 0.8125,15 L8,15 L8,9.1875 L6.0625,9.1875 L6.0625,6.9375 L8,6.9375 L8,5.25 C8,3.3125 9.1875,2.25 10.9375,2.25 C11.75,2.25 12.5,2.3125 12.6875,2.3125 L12.6875,4.375 L11.5,4.375 C10.5625,4.375 10.375,4.8125 10.375,5.5 L10.375,6.9375 L12.625,6.9375 L12.3125,9.1875 L10.375,9.1875 L10.375,15 L14.1875,15 C14.6334238,14.9932932 14.9932932,14.6334238 15,14.1875 L15,0.8125 C14.9932932,0.366576211 14.6334238,0.00670675279 14.1875,0 Z" id="path-1"></path>
    </defs>
    <g id="Page-1" stroke="none" stroke-width="1" fill="none" fill-rule="evenodd">
        <g id="Option-3" transform="translate(-736.000000, -33.000000)">
            <g id="icon/social/facebook/24-copy-2" transform="translate(736.000000, 33.000000)">
                <mask id="mask-2" fill="white">
                    <use xlink:href="#path-1"></use>
                </mask>
                <use id="icon-color" fill="#AB4949" xlink:href="#path-1"></use>
            </g>
        </g>
    </g>
</svg>