<?xml version="1.0" encoding="UTF-8"?>
<svg width="24px" height="24px" viewBox="0 0 24 24" version="1.1" xmlns="http://www.w3.org/2000/svg" xmlns:xlink="http://www.w3.org/1999/xlink">
    <!-- Generator: sketchtool 59.1 (101010) - https://sketch.com -->
    <title>725A35F9-2B84-4731-84EF-EFFC5A52A69E</title>
    <desc>Created with sketchtool.</desc>
    <g id="Page-2" stroke="none" stroke-width="1" fill="none" fill-rule="evenodd">
        <g id="Food-Pairings" transform="translate(-924.000000, -166.000000)">
            <g id="Food-pairings/Lean-fish" transform="translate(924.000000, 165.000000)">
                <rect id="Rectangle-Copy-2" x="0" y="0" width="24" height="24"></rect>
                <g id="Group" transform="translate(1.000000, 1.000000)" stroke="#413737" stroke-linejoin="round" stroke-width="1.3">
                    <path d="M21.7129,1.2861 C22.5299,2.1041 23.0939,8.4131 18.8959,12.6111 C14.6969,16.8091 8.9859,16.8431 8.9859,16.8431 L6.1559,14.0151 C6.1559,14.0151 6.2449,8.2681 10.3999,4.1151 C14.5539,-0.0389 20.8959,0.4691 21.7129,1.2861 L21.7129,1.2861 Z" id="Stroke-2118"></path>
                    <polygon id="Stroke-2119" points="8.9854 16.8428 6.1564 22.4998 4.5254 18.7698 0.5004 16.8428 6.1564 14.0148"></polygon>
                    <path d="M20.0254,11.2695 C20.0254,11.2695 20.0104,14.4575 15.3474,19.1195 L12.5134,16.2595" id="Stroke-2120"></path>
                    <path d="M6.5098,11.5391 L3.6818,8.7111 C3.6818,8.7111 4.5788,4.3911 10.0258,4.2691" id="Stroke-2121"></path>
                    <path d="M16.7334,4.085 C17.1254,4.477 17.1254,5.109 16.7334,5.5 C16.3434,5.891 15.7104,5.891 15.3194,5.5 C14.9284,5.109 14.9284,4.477 15.3194,4.085 C15.7104,3.694 16.3434,3.694 16.7334,4.085 L16.7334,4.085 Z" id="Stroke-2122"></path>
                </g>
            </g>
        </g>
    </g>
</svg>