<?xml version="1.0" encoding="UTF-8"?>
<svg width="28px" height="35px" viewBox="0 0 28 35" version="1.1" xmlns="http://www.w3.org/2000/svg" xmlns:xlink="http://www.w3.org/1999/xlink">
    <!-- Generator: Sketch 53.2 (72643) - https://sketchapp.com -->
    <title>Group 5</title>
    <desc>Created with Sketch.</desc>
    <g id="Page-1" stroke="none" stroke-width="1" fill="none" fill-rule="evenodd">
        <g id="Option-3-expand" transform="translate(-1024.000000, -1336.000000)" fill="#7C6A6A" fill-rule="nonzero">
            <g id="Group-5" transform="translate(1024.000000, 1336.000000)">
                <path d="M20.5948971,20.9641796 C22.0660601,19.4666375 22.9861946,17.5680033 23.255894,15.4729102 C23.5170095,13.4451824 23.1224288,11.3506529 22.1452532,9.5757569 C21.9539161,9.22821893 21.5219541,9.10448073 21.180538,9.29896674 C20.8388449,9.49401645 20.7172864,9.93372389 20.9086235,10.2812619 C22.6375791,13.4217876 22.0962421,17.3952209 19.5925237,19.9438328 C18.0931171,21.4704068 16.0991693,22.3109245 13.9786788,22.3109245 C11.8579114,22.3109245 9.86424051,21.4704068 8.36483384,19.9438328 C6.86542718,18.4175407 6.03943831,16.3878398 6.03943831,14.2293273 C6.03943831,12.0705329 6.8651503,10.041114 8.36483384,8.51482178 C10.8325554,6.0028521 14.5665348,5.41995788 17.655894,7.06435099 C18.0028481,7.24897176 18.4312105,7.11226779 18.6125791,6.75909254 C18.7942246,6.40591729 18.6599288,5.97015591 18.3129747,5.78553521 C16.5851266,4.8658138 14.5657041,4.5171483 12.6265823,4.80408563 C10.620174,5.10060628 8.79984177,6.03103848 7.36218354,7.49419318 C5.59501586,9.29332947 4.62171679,11.6852252 4.62171679,14.2293273 C4.62171679,16.7734294 5.59501586,19.1653252 7.36218354,20.9641796 C9.12962818,22.7633158 11.4791139,23.7540669 13.9786788,23.7540669 C16.4779668,23.7540669 18.8277294,22.7633158 20.5948971,20.9641796 L20.5948971,20.9641796 Z" id="Path"></path>
                <path d="M19.6265823,8.54977288 C19.7653085,8.69295966 19.9483386,8.76455309 20.1313687,8.76455309 C20.3110759,8.76455309 20.4910601,8.69549642 20.6289557,8.55681953 C20.9077927,8.27692878 20.9108386,7.82002767 20.6358781,7.53619086 L20.5943434,7.49362942 C20.3168908,7.21204759 19.868038,7.2128932 19.591693,7.49503879 C19.3153481,7.77718438 19.3159019,8.23408549 19.5930775,8.51538554 L19.6265823,8.54977288 Z" id="Path"></path>
                <path d="M18.5297864,29.719713 L23.8631329,24.2910173 C29.3133307,18.7430933 29.3133307,9.71556132 23.8631329,4.16763726 C21.2226266,1.48006653 17.7123813,6.03961325e-14 13.9786788,6.03961325e-14 C10.2446994,6.03961325e-14 6.7344541,1.48006653 4.09422465,4.16763726 C1.45399527,6.85520806 5.08038056e-13,10.4283948 5.08038056e-13,14.2293273 C5.08038056e-13,18.029978 1.45399527,21.6031647 4.09422465,24.2907355 L9.42729434,29.719713 L14,34.2463854 L18.5297864,29.719713 Z M5.09659814,5.18798408 C7.46906649,2.77325738 10.6234969,1.44314236 13.9786788,1.44314236 C17.3335839,1.44314236 20.4880143,2.77325738 22.8604826,5.18826592 C25.232951,7.60299262 26.5393592,10.8139844 26.5393592,14.2293273 C26.5393592,17.6446703 25.232951,20.8553802 22.8604826,23.2703887 L13.9786788,32.311732 L5.09659814,23.2703887 C0.199090208,18.2850647 0.199090208,10.173308 5.09659814,5.18798408 Z" id="Shape"></path>
                <path d="M14.8417722,17.5956259 C16.1769779,17.3808458 17.3219541,16.5112962 17.9042722,15.2694045 C18.3816456,14.2510308 18.4323181,13.0610021 18.0429984,12.0042949 L16.761788,8.52581448 C16.657951,8.24423258 16.3935127,8.0573569 16.0980617,8.0573569 L11.8592959,8.0573569 C11.5638449,8.0573569 11.2994067,8.24423258 11.1955696,8.52581448 L9.91408228,12.0042949 C9.52476269,13.0610021 9.57543511,14.2510308 10.0530854,15.2694045 C10.6354035,16.5112962 11.7801029,17.3811277 13.1155855,17.5956259 C13.1634889,17.6035182 13.2113924,17.6094373 13.2592959,17.6159201 L13.2592959,19.554579 L12.2596915,19.554579 C11.8684336,19.554579 11.5508307,19.8775948 11.5508307,20.2761502 C11.5508307,20.6747055 11.8684336,20.9977214 12.2596915,20.9977214 L15.6766219,20.9977214 C16.0681566,20.9977214 16.3854826,20.6747055 16.3854826,20.2761502 C16.3854826,19.8775948 16.0681566,19.554579 15.6766219,19.554579 L14.6770174,19.554579 L14.6770174,17.6187388 C14.7318434,17.6116922 14.7869462,17.6043637 14.8417722,17.5956259 Z M15.6065664,9.50078118 L16.3708069,11.5747346 C15.979826,11.7091836 15.2712421,11.793179 14.2849288,11.2706036 C13.3371045,10.7680406 12.5318829,10.6660059 11.8975079,10.7305527 L12.3505143,9.50078118 L15.6065664,9.50078118 Z M11.3323576,14.647895 C11.0200159,13.9812872 10.986788,13.2024977 11.2415348,12.511086 L11.2722706,12.4279361 C11.4508702,12.3013793 12.2652294,11.8270026 13.6300633,12.550265 C14.4350079,12.9770067 15.1399921,13.1207572 15.7250791,13.1207572 C16.1659019,13.1207572 16.5383307,13.0387349 16.8337816,12.9352909 C16.9456488,13.5097291 16.8750396,14.1146088 16.625,14.6476131 C16.2437105,15.4605082 15.4946994,16.0295911 14.6208069,16.1699592 C14.1946598,16.2384521 13.7626978,16.2384521 13.3368275,16.1699592 C12.4626582,16.0295911 11.7133703,15.4605082 11.3323576,14.647895 Z" id="Shape"></path>
            </g>
        </g>
    </g>
</svg>