<?xml version="1.0" encoding="UTF-8"?>
<svg width="58px" height="44px" viewBox="0 0 58 44" version="1.1" xmlns="http://www.w3.org/2000/svg" xmlns:xlink="http://www.w3.org/1999/xlink">
    <!-- Generator: sketchtool 59.1 (101010) - https://sketch.com -->
    <title>C7A8507A-09A3-4708-9B9D-6BF3A04C2508</title>
    <desc>Created with sketchtool.</desc>
    <g id="Page-2" stroke="none" stroke-width="1" fill="none" fill-rule="evenodd">
        <g id="Homepage---Full" transform="translate(-736.000000, -3295.000000)">
            <g id="How-it-work" transform="translate(1.000000, 3169.000000)">
                <g id="Icon/Shipping" transform="translate(736.000000, 120.000000)">
                    <rect id="Rectangle" x="0" y="0" width="56" height="56"></rect>
                    <g id="Group" transform="translate(28.000000, 27.695652) scale(-1, 1) translate(-28.000000, -27.695652) translate(0.000000, 7.000000)" stroke="#413737" stroke-linecap="round" stroke-linejoin="round" stroke-width="2">
                        <path d="M24.3478261,35.3043478 C24.3478261,38.6667826 21.6233043,41.3913043 18.2608696,41.3913043 C14.896,41.3913043 12.173913,38.6667826 12.173913,35.3043478 C12.173913,31.9443478 14.896,29.2173913 18.2608696,29.2173913 C21.6233043,29.2173913 24.3478261,31.9443478 24.3478261,35.3043478 L24.3478261,35.3043478 Z" id="Stroke-1179"></path>
                        <path d="M51.1304348,35.3043478 C51.1304348,38.6667826 48.405913,41.3913043 45.0434783,41.3913043 C41.6786087,41.3913043 38.9565217,38.6667826 38.9565217,35.3043478 C38.9565217,31.9443478 41.6786087,29.2173913 45.0434783,29.2173913 C48.405913,29.2173913 51.1304348,31.9443478 51.1304348,35.3043478 L51.1304348,35.3043478 Z" id="Stroke-1180"></path>
                        <polyline id="Stroke-1181" points="19.4782609 24.3478261 19.4782609 0 56 0 56 34.0869565"></polyline>
                        <path d="M0,36.5217391 L0,19.4782609 C0,14.1241739 4.38504348,9.73913043 9.73913043,9.73913043 L19.4782609,9.73913043" id="Stroke-1182"></path>
                        <line x1="29.2173913" y1="34.0869565" x2="34.0869565" y2="34.0869565" id="Stroke-1183"></line>
                        <line x1="0" y1="36.5217391" x2="7.30434783" y2="36.5217391" id="Stroke-1184"></line>
                        <path d="M4.86956522,24.3478261 L4.86956522,18.2608696 C4.86956522,16.2521739 6.51547826,14.6086957 8.52173913,14.6086957 L14.6086957,14.6086957" id="Stroke-1185"></path>
                        <line x1="0" y1="31.6521739" x2="8.52173913" y2="31.6521739" id="Stroke-1186"></line>
                    </g>
                </g>
            </g>
        </g>
    </g>
</svg>