<?xml version="1.0" encoding="UTF-8"?>
<svg width="30px" height="30px" viewBox="0 0 30 30" version="1.1" xmlns="http://www.w3.org/2000/svg" xmlns:xlink="http://www.w3.org/1999/xlink">
    <!-- Generator: Sketch 53.2 (72643) - https://sketchapp.com -->
    <title>Group 9</title>
    <desc>Created with Sketch.</desc>
    <g id="Page-1" stroke="none" stroke-width="1" fill="none" fill-rule="evenodd">
        <g id="Option-3-expand" transform="translate(-234.000000, -1339.000000)" fill="#7C6A6A" fill-rule="nonzero">
            <g id="Group-9" transform="translate(234.000000, 1339.000000)">
                <path d="M29.4140625,23.4935188 C24.5205688,23.4935188 19.7177124,25.5008125 16.2368774,29.0006447 C16.0084534,29.2302132 16.0095978,29.6012306 16.2389374,29.829197 C16.3533783,29.9429512 16.5026092,29.9997139 16.652298,29.9997139 C16.8026733,29.9997139 16.9530487,29.9422646 17.0677185,29.827137 C20.3302002,26.5468025 24.830246,24.6653938 29.4140625,24.6653938 C29.7377014,24.6653938 30,24.4030953 30,24.0794563 C30,23.7560463 29.7377014,23.4935188 29.4140625,23.4935188 L29.4140625,23.4935188 Z" id="Path"></path>
                <path d="M17.1954346,22.95084 C17.0141602,22.6825905 16.6500091,22.6120949 16.3819886,22.7933693 C13.8764191,24.4857216 11.7604065,26.6033363 10.0923157,29.087162 C9.91195676,29.3558693 9.98336789,29.7200203 10.2520752,29.9003792 C10.3525543,29.9676705 10.4658509,29.9999428 10.5782318,29.9999428 C10.7668304,29.9999428 10.9522247,29.9088478 11.0652923,29.7406197 C12.6486969,27.3824501 14.6580505,25.3717232 17.0379639,23.764286 C17.3059845,23.5832405 17.3764801,23.2190895 17.1954346,22.95084 Z" id="Path"></path>
                <path d="M29.4140625,18.7767219 C26.7945099,18.7767219 24.2017365,19.2241859 21.70784,20.1067543 C21.4027405,20.2145577 21.242981,20.5494118 21.3510132,20.8545113 C21.4359284,21.0950661 21.6620636,21.2452126 21.903305,21.2452126 C21.9680786,21.2452126 22.0339966,21.2342263 22.0987702,21.211338 C24.4667816,20.3734016 26.927948,19.9485969 29.4140625,19.9485969 C29.7377014,19.9485969 30,19.6862984 30,19.3626594 C30,19.0390206 29.7377014,18.7767219 29.4140625,18.7767219 L29.4140625,18.7767219 Z" id="Path"></path>
                <path d="M8.39515687,25.9791756 C12.2499847,20.9531593 17.8301239,17.463398 23.9875031,16.1555672 C23.9886475,16.1553383 23.9897919,16.1551094 23.9907074,16.1548806 C25.7601929,15.7792854 27.576828,15.5835915 29.4140625,15.5835915 C29.7374725,15.5835915 30,15.321064 30,14.997654 C30,14.674015 29.7374725,14.4117165 29.4140625,14.4117165 C27.7480316,14.4117165 26.0884095,14.5641518 24.4569397,14.8623848 L24.4569397,13.5975838 C26.5747833,11.8047524 27.7372741,9.45550919 27.7372741,6.95383075 C27.7372741,4.36723708 26.4946747,1.94360733 24.2381286,0.129261006 C24.0236664,-0.043087002 23.7181091,-0.043087002 23.5036468,0.129261006 C21.2473297,1.94360733 20.0045013,4.36723708 20.0045013,6.95383075 C20.0045013,9.45550919 21.1672211,11.8047524 23.2848358,13.5975838 L23.2848358,15.1020241 C22.1715546,15.3553963 21.0742951,15.6783485 19.9999237,16.0672188 L19.9999237,12.6365089 C19.9999237,12.4753761 19.9349213,12.3295784 19.8296356,12.2236061 L19.8296356,12.2233772 L16.5483856,8.92267228 C16.4382935,8.81212233 16.2888336,8.74986647 16.1327362,8.74986647 L9.43359375,8.74986647 C9.27772523,8.74986647 9.12803648,8.81212233 9.0181732,8.92267228 L5.7369232,12.2233772 L5.7369232,12.2236061 C5.63163756,12.3295784 5.56640625,12.4753761 5.56640625,12.6367378 L5.56640625,14.8742867 C5.15808105,14.7994423 4.7479248,14.7335243 4.3359375,14.6772194 L4.3359375,12.5884438 C5.93742369,11.210804 6.81610107,9.41408159 6.81610107,7.49994278 C6.81610107,5.5002022 5.85754395,3.62840651 4.11712646,2.22879407 C3.9026642,2.05644606 3.5973358,2.05644606 3.38287354,2.22879407 C1.64245605,3.62817765 0.683898926,5.5002022 0.683898926,7.49994278 C0.683898926,9.41385267 1.56257631,11.2105751 3.1640625,12.5882149 L3.1640625,14.542408 C2.30964662,14.4625282 1.44950865,14.4213295 0.5859375,14.4213295 C0.262298555,14.4213295 0,14.6836281 0,15.007267 C0,15.3309059 0.262298555,15.5932045 0.5859375,15.5932045 C5.27114871,15.5932045 9.8538208,16.8328285 13.8938141,19.1845894 C12.9258728,19.8423958 12.0014191,20.5608559 11.1261749,21.3342476 C7.85293582,19.6666145 4.21600342,18.7865639 0.5859375,18.7865639 C0.26252748,18.7865639 0,19.0488624 0,19.3725014 C0,19.6961403 0.26252748,19.9584389 0.5859375,19.9584389 C3.88893129,19.9584389 7.19856264,20.7265663 10.2053833,22.1852302 C9.3145752,23.0469704 8.48190305,23.9689064 7.71354674,24.9434853 C5.43434145,23.9876747 3.03886412,23.5033608 0.5859375,23.5033608 C0.26252748,23.5033608 0,23.7656593 0,24.0892983 C0,24.4129372 0.26252748,24.6752358 0.5859375,24.6752358 C2.78320312,24.6752358 4.93148801,25.0918007 6.98364258,25.9121132 C6.57875062,26.4747048 6.19400027,27.0526314 5.83213805,27.6458931 L4.93927002,29.1086769 C4.77058412,29.3847084 4.85801695,29.7454262 5.13404848,29.9138832 C5.22949219,29.9722481 5.33477783,29.9999428 5.43891908,29.9999428 C5.6362152,29.9999428 5.8291626,29.8999214 5.93948367,29.7191048 L6.8323517,28.256321 C7.29789732,27.4934578 7.80097963,26.7594337 8.33724973,26.0547066 C8.35830691,26.0313606 8.37799072,26.0064125 8.39515687,25.9791756 Z M21.1766052,6.95383075 C21.1766052,4.87123491 22.1294403,2.89850235 23.8710022,1.35263446 C25.6125641,2.89850235 26.5653991,4.87123491 26.5653991,6.95383075 C26.5653991,8.78900528 25.8247376,10.5392647 24.4569397,11.9869423 L24.4569397,7.49994278 C24.4569397,7.17630384 24.1946411,6.91400528 23.8710022,6.91400528 C23.5473633,6.91400528 23.2850647,7.17630384 23.2850647,7.49994278 L23.2850647,11.9869423 C21.9170379,10.5392647 21.1766052,8.78900528 21.1766052,6.95383075 Z M1.85577393,7.49994278 C1.85577393,6.00534442 2.52479555,4.58581925 3.75,3.45788956 C4.97520445,4.58559038 5.64422607,6.00534442 5.64422607,7.49994278 C5.64422607,8.73521804 5.18669127,9.91945269 4.3359375,10.9301949 L4.3359375,7.03119278 C4.3359375,6.70755384 4.07363895,6.44525528 3.75,6.44525528 C3.42658998,6.44525528 3.1640625,6.70755384 3.1640625,7.03119278 L3.1640625,10.9301949 C2.31330873,9.91945269 1.85577393,8.73521804 1.85577393,7.49994278 Z M18.0054474,12.0505714 L12.9586029,12.0505714 L10.8423615,9.92174147 L15.8892059,9.92174147 L18.0054474,12.0505714 Z M9.43359375,10.1668739 L11.306305,12.0505714 L7.56111146,12.0505714 L9.43359375,10.1668739 Z M6.73828125,13.2224464 L12.1289062,13.2224464 L12.1289062,16.9486427 C11.8572235,16.8236733 11.5839386,16.7028236 11.3085938,16.5867805 L11.3085938,14.6188545 C11.3085938,14.2954445 11.0462952,14.032917 10.7226562,14.032917 L8.14453125,14.032917 C7.82112123,14.032917 7.55859375,14.2954445 7.55859375,14.6188545 L7.55859375,15.3155708 C7.28622434,15.2446175 7.01293945,15.1773262 6.73828125,15.1146126 L6.73828125,13.2224464 Z M10.1367188,16.1244392 C9.67208859,15.9532356 9.20333859,15.7943917 8.73046875,15.6485939 L8.73046875,15.204792 L10.1367188,15.204792 L10.1367188,16.1244392 Z M13.3007812,17.5219917 L13.3007812,13.2224464 L18.8282776,13.2224464 L18.8282776,16.522007 C17.8246307,16.9378853 16.8438721,17.4125862 15.893097,17.9463386 C15.5891419,18.1168556 15.2888489,18.2940102 14.9919891,18.4757423 C14.4380951,18.137455 13.8741302,17.8193093 13.3007813,17.5219917 L13.3007812,17.5219917 Z" id="Shape"></path>
                <path d="M23.8710022,5.85931778 C24.0250397,5.85931778 24.1763306,5.79660419 24.2852783,5.68742751 C24.3942261,5.57847976 24.4569397,5.42741774 24.4569397,5.27338028 C24.4569397,5.11911396 24.3944549,4.96805188 24.2852783,4.85910419 C24.1763306,4.74992751 24.0250397,4.68744278 23.8710022,4.68744278 C23.7169647,4.68744278 23.5656738,4.74992751 23.4569549,4.85910419 C23.3477783,4.96805188 23.2850647,5.11911396 23.2850647,5.27338028 C23.2850647,5.42741774 23.3477783,5.57847976 23.4569549,5.68742751 C23.5656738,5.79637526 23.7169647,5.85931778 23.8710022,5.85931778 Z" id="Path"></path>
                <path d="M18.7850189,21.4024544 C18.6763001,21.5114021 18.6133576,21.6624641 18.6133576,21.8165017 C18.6133576,21.9712257 18.6760712,22.12183 18.7850189,22.2307777 C18.8941956,22.3399544 19.0452575,22.4024392 19.1992951,22.4024392 C19.3535614,22.4024392 19.5046234,22.3399544 19.6135712,22.2307777 C19.7225189,22.12183 19.7852326,21.9712257 19.7852326,21.8165017 C19.7852326,21.6624641 19.7225189,21.5114021 19.6135712,21.4024544 C19.5046234,21.2932777 19.3535614,21.2305642 19.1992951,21.2305642 C19.0452575,21.2305642 18.8941956,21.2932777 18.7850189,21.4024544 Z" id="Path"></path>
            </g>
        </g>
    </g>
</svg>