<?xml version="1.0" encoding="UTF-8"?>
<svg width="26px" height="25px" viewBox="0 0 26 25" version="1.1" xmlns="http://www.w3.org/2000/svg" xmlns:xlink="http://www.w3.org/1999/xlink">
    <!-- Generator: sketchtool 59.1 (101010) - https://sketch.com -->
    <title>ED261558-13A5-4924-B8D3-C42F13303B6B</title>
    <desc>Created with sketchtool.</desc>
    <g id="Page-2" stroke="none" stroke-width="1" fill="none" fill-rule="evenodd">
        <g id="Food-Pairings" transform="translate(-923.000000, -92.000000)">
            <g id="Food-pairings/Aperitif" transform="translate(924.000000, 93.000000)">
                <rect id="Rectangle" x="0" y="0" width="24" height="24"></rect>
                <g id="cocktail" fill="#413737" fill-rule="nonzero" stroke="#413737" stroke-width="0.4">
                    <path d="M19.6072674,0.585700711 C17.4436646,0.585700711 15.6369543,2.14862619 15.3089624,4.25889787 L8.24211492,4.25889787 C8.01246863,4.25889787 7.82627736,4.44508914 7.82627736,4.67473543 C7.82627736,4.90438173 8.01246863,5.09057299 8.24211492,5.09057299 L18.9258136,5.09057299 L10.1836605,14.6498469 C10.1329283,14.6278075 10.0771021,14.6152284 10.0182611,14.6152284 C9.9632666,14.6152284 9.91107898,14.626456 9.86304975,14.6457925 L1.37923574,5.09057299 L4.32222213,5.09057299 C4.55186843,5.09057299 4.7380597,4.90438173 4.7380597,4.67473543 C4.7380597,4.44508914 4.55186843,4.25889787 4.32222213,4.25889787 L0.453893198,4.25889787 C0.290157157,4.25889787 0.141703147,4.35495635 0.0746493401,4.50424203 C0.00759553299,4.65352772 0.0343130964,4.82838741 0.14295066,4.95074761 L9.60231959,15.6048179 L9.60231959,22.1003046 L5.70145137,22.1003046 C5.47180508,22.1003046 5.28561381,22.2864958 5.28561381,22.5161421 C5.28561381,22.7457884 5.47180508,22.9319797 5.70145137,22.9319797 L14.0974197,22.9319797 C14.327066,22.9319797 14.5132573,22.7457884 14.5132573,22.5161421 C14.5132573,22.2864958 14.327066,22.1003046 14.0974197,22.1003046 L10.4340987,22.1003046 L10.4340987,15.6083525 L17.004852,8.42340711 C17.7537754,8.98270863 18.6658112,9.2884532 19.6072674,9.2884532 C22.0066502,9.2884532 23.9586956,7.33640772 23.9586956,4.93702497 C23.9586956,2.53764223 22.0066502,0.585700711 19.6072674,0.585700711 Z M20.2501523,4.50704893 C20.1836183,4.35620386 20.0344365,4.25889787 19.869557,4.25889787 L17.5529259,4.25889787 C17.8404776,3.38272812 18.6605092,2.77269442 19.6072674,2.77269442 C20.8007212,2.77269442 21.7717019,3.74367513 21.7717019,4.93712893 C21.7717019,6.13058274 20.8007212,7.10156345 19.6072674,7.10156345 C19.2103505,7.10156345 18.8304828,6.99479716 18.4956296,6.79332386 L20.176549,4.95532183 C20.2876816,4.83368934 20.3165823,4.65789401 20.2501523,4.50704893 L20.2501523,4.50704893 Z M19.6072674,8.45688203 C18.873626,8.45688203 18.16192,8.22765157 17.5692475,7.80640812 L17.9269718,7.41520893 C18.4237937,7.75318091 19.0011842,7.93323858 19.6072674,7.93323858 C21.2593901,7.93323858 22.6033771,6.58914761 22.6033771,4.93712893 C22.6033771,3.28511025 21.2592861,1.94101929 19.6072674,1.94101929 C18.2048552,1.94101929 17.0003817,2.90721787 16.6885036,4.25889787 L16.1525929,4.25889787 C16.469669,2.61800284 17.9013978,1.41737584 19.6072674,1.41737584 C21.5480853,1.41737584 23.1270205,2.99631107 23.1270205,4.93712893 C23.1270205,6.8779468 21.5480853,8.45688203 19.6072674,8.45688203 Z" id="Shape"></path>
                    <path d="M8.00612711,7.15738964 C7.76244629,7.51376244 7.61939817,7.94405036 7.61939817,8.4072934 C7.61939817,9.63172711 8.61553706,10.627866 9.83997076,10.627866 C10.2199423,10.627866 10.5777706,10.5315996 10.8908962,10.3626656 L11.6893044,11.2497511 C11.7714323,11.3410274 11.884748,11.3873933 11.9985836,11.3873933 C12.0976569,11.3873933 12.197146,11.3521511 12.276571,11.280627 C12.4472723,11.126975 12.4610989,10.8640617 12.3074469,10.6933604 L11.5364841,9.83683898 C11.8628126,9.45021401 12.0605434,8.95162477 12.0605434,8.4072934 C12.0605434,7.1828597 11.0644045,6.18672081 9.83997076,6.18672081 C9.37922274,6.18672081 8.95091005,6.32800162 8.59568081,6.56918741 L2.86200853,0.198555939 C2.70835655,0.0278546193 2.44544325,0.0139240609 2.27474193,0.16768 C2.10404061,0.32133198 2.09021401,0.584245279 2.24386599,0.754946599 L8.00612711,7.15738964 Z M9.83997076,7.0184999 C10.6058396,7.0184999 11.2288682,7.64152853 11.2288682,8.40739736 C11.2288682,9.17326619 10.6057356,9.79629482 9.83997076,9.79629482 C9.07410193,9.79629482 8.4510733,9.17326619 8.4510733,8.40739736 C8.4510733,7.64152853 9.07410193,7.0184999 9.83997076,7.0184999 Z" id="Shape"></path>
                </g>
            </g>
        </g>
    </g>
</svg>