<?xml version="1.0" encoding="UTF-8"?>
<svg width="24px" height="15px" viewBox="0 0 24 15" version="1.1" xmlns="http://www.w3.org/2000/svg" xmlns:xlink="http://www.w3.org/1999/xlink">
    <!-- Generator: sketchtool 59.1 (101010) - https://sketch.com -->
    <title>889A77F3-6D58-43DA-8792-F5ED6A3CA5C6</title>
    <desc>Created with sketchtool.</desc>
    <g id="Page-2" stroke="none" stroke-width="1" fill="none" fill-rule="evenodd">
        <g id="Food-Pairings" transform="translate(-672.000000, -98.000000)">
            <g id="Food-pairings/Cured-meat" transform="translate(672.000000, 93.000000)">
                <g id="Group-12">
                    <rect id="Rectangle" x="0" y="0" width="24" height="24"></rect>
                    <g id="ham" transform="translate(0.000000, 5.000000)" fill="#413737" fill-rule="nonzero">
                        <path d="M16.6878662,0 C15.8688354,0 15.0812988,0.136230469 14.345581,0.385803234 C13.6089478,0.135681141 12.8201294,0 12,0 C11.1809693,0 10.3932495,0.136230469 9.65753175,0.385803234 C8.92108153,0.135681141 8.13226317,0 7.31213381,0 C3.28015134,0 0,3.28015134 0,7.31213381 C0,11.3441162 3.28015134,14.6242676 7.31213381,14.6242676 C8.13189698,14.6242676 8.92071534,14.4887695 9.65716552,14.2388306 C10.3928833,14.4884033 11.1807862,14.6242676 12,14.6242676 C12.8199463,14.6242676 13.6089478,14.4885864 14.3453979,14.2386474 C15.0811157,14.4882202 15.8688354,14.6242676 16.6878662,14.6242676 C20.7198487,14.6242676 24,11.3441162 24,7.31213381 C24,3.28015134 20.7198487,0 16.6878662,0 Z M1.40625,7.31213381 C1.40625,4.05560302 4.05560302,1.40625 7.31213381,1.40625 C10.5686646,1.40625 13.2180176,4.05560302 13.2180176,7.31213381 C13.2180176,10.5686646 10.5686646,13.2180176 7.31213381,13.2180176 C4.05560302,13.2180176 1.40625,10.5686646 1.40625,7.31213381 Z M11.6337891,13.2066651 C13.4458008,11.8745728 14.6242676,9.72857667 14.6242676,7.31213381 C14.6242676,4.89569091 13.4459839,2.74969481 11.6337891,1.41760256 C11.7550049,1.41027834 11.8769531,1.40625 12,1.40625 C15.2565308,1.40625 17.9058838,4.05560302 17.9058838,7.31213381 C17.9058838,10.5686646 15.2565308,13.2180176 12,13.2180176 C11.8769531,13.2180176 11.7548218,13.2141724 11.6337891,13.2066651 Z M16.6878662,13.2180176 C16.5650025,13.2180176 16.4428711,13.2139893 16.3218384,13.2064819 C18.1338501,11.8743896 19.3121338,9.72839353 19.3121338,7.31213381 C19.3121338,4.89642333 18.1342163,2.75079347 16.3231201,1.41870117 C16.4437866,1.41119386 16.5651855,1.40625 16.6878662,1.40625 C19.944397,1.40625 22.59375,4.05560302 22.59375,7.31213381 C22.59375,10.5686646 19.944397,13.2180176 16.6878662,13.2180176 L16.6878662,13.2180176 Z" id="Shape"></path>
                        <path d="M8.03228761,2.51623537 C6.77673338,2.51623537 5.755188,3.53778075 5.755188,4.79333494 C5.755188,6.04907227 6.77673338,7.07043459 8.03228761,7.07043459 C9.28802489,7.07043459 10.3095703,6.04907227 10.3095703,4.79333494 C10.3095703,3.53778075 9.28802489,2.51623537 8.03228761,2.51623537 Z M8.03228761,5.66418459 C7.55218505,5.66418459 7.161438,5.27362059 7.161438,4.79333494 C7.161438,4.31323242 7.55218505,3.92248537 8.03228761,3.92248537 C8.51257322,3.92248537 8.90332031,4.31323242 8.90332031,4.79333494 C8.90332031,5.27362059 8.51257322,5.66418459 8.03228761,5.66418459 Z" id="Shape"></path>
                        <path d="M7.31213381,7.91418459 C6.1367798,7.91418459 5.18041992,8.87054442 5.18041992,10.0458984 C5.18041992,11.2214355 6.1367798,12.1776123 7.31213381,12.1776123 C8.48767087,12.1776123 9.44384766,11.2214355 9.44384766,10.0458984 C9.44384766,8.87054442 8.48767087,7.91418459 7.31213381,7.91418459 Z M7.31213381,10.7713623 C6.91223147,10.7713623 6.58666992,10.4459839 6.58666992,10.0458984 C6.58666992,9.64599609 6.91223147,9.32043459 7.31213381,9.32043459 C7.71221925,9.32043459 8.03759766,9.64599609 8.03759766,10.0458984 C8.03759766,10.4459839 7.71221925,10.7713623 7.31213381,10.7713623 Z" id="Shape"></path>
                        <polygon id="Path" points="10.3262329 7.31213381 11.7764282 7.31213381 11.7764282 8.76232913 10.3262329 8.76232913"></polygon>
                        <polygon id="Path" points="3.32629397 4.32202148 4.77630614 4.32202148 4.77630614 5.7720337 3.32629397 5.7720337"></polygon>
                        <polygon id="Path" points="2.76379397 7.77264403 4.21380614 7.77264403 4.21380614 9.22265625 2.76379397 9.22265625"></polygon>
                    </g>
                </g>
            </g>
        </g>
    </g>
</svg>