<?xml version="1.0" encoding="UTF-8"?>
<svg width="26px" height="17px" viewBox="0 0 26 17" version="1.1" xmlns="http://www.w3.org/2000/svg" xmlns:xlink="http://www.w3.org/1999/xlink">
    <!-- Generator: sketchtool 59.1 (101010) - https://sketch.com -->
    <title>BA776811-6F3D-4D6E-8079-1048301CD8A1</title>
    <desc>Created with sketchtool.</desc>
    <g id="Page-2" stroke="none" stroke-width="1" fill="none" fill-rule="evenodd">
        <g id="Homepage---Full" transform="translate(-395.000000, -28.000000)">
            <g id="Header">
                <g id="Group-10" transform="translate(396.000000, 26.000000)">
                    <g id="Group-2">
                        <g id="Group" transform="translate(0.000000, 3.000000)" stroke="#413737" stroke-linecap="round" stroke-linejoin="round" stroke-width="1.2">
                            <polygon id="Stroke-798" points="22.5 12.5 1.5 12.5 3.5 14.5 20.5 14.5"></polygon>
                            <line x1="0.5" y1="12.5" x2="23.5" y2="12.5" id="Stroke-799"></line>
                            <path d="M13.5,2 C13.5,2.828 12.827,3.5 12,3.5 C11.171,3.5 10.5,2.828 10.5,2 C10.5,1.172 11.171,0.5 12,0.5 C12.827,0.5 13.5,1.172 13.5,2 L13.5,2 Z" id="Stroke-800"></path>
                            <path d="M3,12.5 C3,7.529 7.029,3.5 12,3.5 C16.971,3.5 21,7.529 21,12.5" id="Stroke-801"></path>
                            <path d="M6.5225,9 C7.6765,7.195 9.6975,6 11.9995,6" id="Stroke-802"></path>
                        </g>
                        <rect id="Rectangle" x="2" y="0" width="20" height="20"></rect>
                    </g>
                </g>
            </g>
        </g>
    </g>
</svg>