<?xml version="1.0" encoding="UTF-8"?>
<svg width="30px" height="30px" viewBox="0 0 30 30" version="1.1" xmlns="http://www.w3.org/2000/svg" xmlns:xlink="http://www.w3.org/1999/xlink">
    <!-- Generator: Sketch 53.2 (72643) - https://sketchapp.com -->
    <title>Group 8</title>
    <desc>Created with Sketch.</desc>
    <g id="Page-1" stroke="none" stroke-width="1" fill="none" fill-rule="evenodd">
        <g id="Option-3-expand" transform="translate(-579.000000, -1341.000000)" fill="#7C6A6A" fill-rule="nonzero">
            <g id="Group-8" transform="translate(579.000000, 1341.000000)">
                <path d="M29.4115435,25.8728027 C29.7351824,25.8728027 29.997481,25.6105042 29.997481,25.2868652 L29.997481,20.4897308 C29.997481,20.2835083 29.8839556,20.0857544 29.7051989,19.9825287 L24.6949755,17.0819092 C24.4860064,16.9610596 24.2243945,16.9805145 24.0357958,17.1311188 C23.8002764,17.3190308 23.4622179,17.2995758 23.2491289,17.0864868 C23.1145464,16.9521332 23.0538927,16.7667389 23.0825029,16.5781403 C23.1186663,16.3398743 23.0053698,16.1038971 22.7968584,15.9830475 L18.3398424,13.4026337 C17.7937304,13.0865479 17.1592699,13.0270386 16.5870654,13.1977845 C16.8871294,11.7723083 16.7893969,10.2799988 16.2929522,8.89732359 L13.2364642,0.387954727 C13.1529222,0.155181914 12.9322802,0 12.6850878,0 L4.07226432,0 C3.82484307,0 3.60420098,0.155181914 3.52065912,0.387954727 L0.464171055,8.89732359 C-0.161591856,10.6398011 -0.154496563,12.5559997 0.484541523,14.2936706 C1.3027941,16.5190887 3.05602896,18.2439422 5.29472219,19.0255737 C5.72913994,19.1770935 6.1731707,19.2956543 6.62269463,19.3810272 L6.62269463,25.9689331 C6.62269463,26.3088226 6.42013416,26.6132355 6.10656607,26.7443848 L3.4080492,27.8736878 C2.91595328,28.0794525 2.64541498,28.5887146 2.7504717,29.1117096 C2.85552848,29.6347046 3.30139029,30 3.83491387,30 L12.9222094,30 C13.2293688,30 13.5067736,29.8784637 13.7075029,29.6761322 C14.0380083,29.8812103 14.4271074,30 14.8439013,30 L15.9791552,30 C16.3027941,30 16.5650927,29.7377014 16.5650927,29.4140625 C16.5650927,29.087677 16.8305956,28.8221741 17.1569811,28.8221741 C17.4833666,28.8221741 17.7488695,29.087677 17.7488695,29.4140625 C17.7488695,29.7377014 18.0111681,30 18.334807,30 L27.8368364,30 C29.0283953,30 29.9977099,29.0306854 29.9977099,27.8391266 L29.9977099,27.6422882 C29.9977099,27.3186493 29.7351824,27.0563507 29.4117724,27.0563507 C29.0853869,27.0563507 28.8198839,26.7908478 28.8198839,26.4644623 C28.8198839,26.1383057 29.085158,25.8728027 29.4115435,25.8728027 Z M17.7525316,14.4168091 L21.9113146,16.8244171 C21.9483935,17.2320557 22.1262347,17.6209259 22.4203478,17.9150391 C22.9538714,18.4485626 23.7501513,18.5744476 24.4074999,18.269577 L27.2300707,19.9037933 L13.9482866,19.9037933 C14.2801653,17.9560089 15.1309191,16.1439514 16.4204394,14.6463776 C16.7534624,14.2593384 17.3139941,14.1627503 17.7525316,14.4168091 L17.7525316,14.4168091 Z M20.639876,21.0756683 C20.4370867,21.4242554 20.0603472,21.6595459 19.6289049,21.6595459 C19.1974627,21.6595459 18.8207232,21.4242554 18.6179339,21.0756683 L20.639876,21.0756683 Z M10.1383196,19.3803405 C10.5864702,19.2949676 11.0291277,19.1766357 11.462401,19.0255737 C12.062987,18.815918 12.6280962,18.5378265 13.1499468,18.2009125 C12.9654681,18.8035583 12.8274523,19.4229126 12.7386462,20.0541687 L12.6887499,20.40802 C12.6848589,20.435028 12.6830279,20.462265 12.6830279,20.4897308 L12.6830279,27.5953675 L10.6549059,26.7482757 C10.3411089,26.6171265 10.1383196,26.3124847 10.1383196,25.9725952 L10.1383196,19.3803405 Z M4.48425162,1.171875 L12.2728716,1.171875 L14.908446,8.50959779 L13.4138476,8.50959779 L12.2767626,5.34347531 C12.1673571,5.0390625 11.8315874,4.88067627 11.5271746,4.99008176 C11.2227617,5.0994873 11.0643755,5.43525697 11.1737811,5.73966979 L12.1687304,8.50959779 L1.84867727,8.50959779 L4.48425162,1.171875 Z M1.58431873,13.8892365 C1.08718744,12.5372314 1.04072441,11.0584259 1.44264092,9.68147279 L15.3144824,9.68147279 C15.7163988,11.0584259 15.6699358,12.5372314 15.1728045,13.8892365 C14.4758593,15.7846069 12.9828631,17.2535706 11.0760485,17.9191589 C9.33654654,18.5263825 7.42057668,18.5263825 5.68107473,17.9191589 C3.77448906,17.2535706 2.28126396,15.7846069 1.58431873,13.8892365 Z M4.16267266,28.828125 L6.55883658,27.8253937 C7.309569,27.5113678 7.79456963,26.782608 7.79456963,25.9689331 L7.79456963,19.5279694 C7.98911916,19.5401001 8.18389762,19.5460511 8.37867607,19.5460511 C8.57459893,19.5460511 8.77075064,19.5401001 8.96644463,19.5277405 L8.96644463,25.9723663 C8.96644463,26.7867279 9.45190299,27.5154877 10.2033221,27.8292847 L12.593764,28.828125 L4.16267266,28.828125 Z M27.6477801,26.4644623 C27.6477801,27.2172546 28.1217943,27.8613281 28.786925,28.1140137 C28.6674486,28.526001 28.2865892,28.828125 27.8368364,28.828125 L18.8207232,28.828125 C18.5785662,28.1428528 17.924193,27.6502991 17.1569811,27.6502991 C16.3897692,27.6502991 15.735396,28.1428528 15.4932391,28.828125 L14.8439013,28.828125 C14.2984759,28.828125 13.8549029,28.384552 13.8549029,27.8391266 L13.8549029,21.0756683 L17.3613726,21.0756683 C17.622069,22.0841217 18.5398851,22.8314209 19.6289049,22.8314209 C20.7179247,22.8314209 21.6357409,22.0841217 21.8964373,21.0756683 L28.825606,21.0756683 L28.825606,24.8009491 C28.1403338,25.0428772 27.6477801,25.6972504 27.6477801,26.4644623 L27.6477801,26.4644623 Z" id="Shape"></path>
                <path d="M16.4254748,24.1113281 C16.2714373,24.1113281 16.1201464,24.1740417 16.0111986,24.2829895 C15.9022509,24.3919372 15.8395373,24.5425415 15.8395373,24.6972656 C15.8395373,24.8513031 15.9022509,25.002594 16.0111986,25.1115417 C16.1203753,25.2204895 16.2714373,25.2832031 16.4254748,25.2832031 C16.5795122,25.2832031 16.7308031,25.2204895 16.8397509,25.1115417 C16.9486986,25.002594 17.0114123,24.8513031 17.0114123,24.6972656 C17.0114123,24.5432282 16.9486986,24.3919372 16.8397509,24.2829895 C16.7308031,24.1740417 16.5801989,24.1113281 16.4254748,24.1113281 Z" id="Path"></path>
                <path d="M20.5563341,26.0742188 C20.4022967,26.0742188 20.2510058,26.1369323 20.142058,26.2458802 C20.0331103,26.3548279 19.9703966,26.5061188 19.9703966,26.6601562 C19.9703966,26.8141937 20.0331103,26.9654846 20.142058,27.0744323 C20.2512347,27.1833802 20.4022967,27.2460938 20.5563341,27.2460938 C20.7110583,27.2460938 20.8616625,27.1833802 20.9706103,27.0744323 C21.0800158,26.9654846 21.1422716,26.8141937 21.1422716,26.6601562 C21.1422716,26.5061188 21.0800158,26.3548279 20.9706103,26.2458802 C20.8616625,26.1369323 20.7110583,26.0742188 20.5563341,26.0742188 Z" id="Path"></path>
                <path d="M10.9593187,3.99490359 C11.1133562,3.99490359 11.2646471,3.9328766 11.373366,3.82324219 C11.4825426,3.71429443 11.5452562,3.56300355 11.5452562,3.40896609 C11.5452562,3.25492857 11.4825426,3.1036377 11.373366,2.99468994 C11.2646471,2.88574219 11.1133562,2.82302859 10.9593187,2.82302859 C10.8052813,2.82302859 10.6539904,2.88574219 10.5450426,2.99468994 C10.4360949,3.1036377 10.3733812,3.25492857 10.3733812,3.40896609 C10.3733812,3.56369016 10.435866,3.71429443 10.5450426,3.82324219 C10.6539904,3.9328766 10.8052813,3.99490359 10.9593187,3.99490359 Z" id="Path"></path>
            </g>
        </g>
    </g>
</svg>