<?xml version="1.0" encoding="UTF-8"?>
<svg width="30px" height="30px" viewBox="0 0 30 30" version="1.1" xmlns="http://www.w3.org/2000/svg" xmlns:xlink="http://www.w3.org/1999/xlink">
    <!-- Generator: Sketch 53.2 (72643) - https://sketchapp.com -->
    <title>Group 6</title>
    <desc>Created with Sketch.</desc>
    <g id="Page-1" stroke="none" stroke-width="1" fill="none" fill-rule="evenodd">
        <g id="Option-3-expand" transform="translate(-392.000000, -1339.000000)" fill="#7C6A6A" fill-rule="nonzero">
            <g id="Group-6" transform="translate(392.000000, 1339.000000)">
                <path d="M29.9999428,15.0830427 C29.9999428,13.679997 28.9972115,12.5067487 27.6708412,12.2419324 C27.5122261,10.7931104 26.2815284,9.66174747 24.7910499,9.66174747 C23.8480568,9.66174747 23.008976,10.1149335 22.4795723,10.8146253 C22.0701027,10.2733197 21.4750099,9.88010077 20.7899666,9.72972542 C20.9643745,8.4594312 21.7698097,7.33012819 22.9414558,6.76547674 L23.3644294,6.56177188 C23.3687782,6.55971196 23.3726692,6.55696538 23.377018,6.55490546 C24.3204689,7.19943671 25.3401375,7.73959784 26.4220619,8.16417366 L28.1725502,8.8512769 C28.2428169,8.87874272 28.3151436,8.89178897 28.3863259,8.89178897 C28.6202431,8.89178897 28.8413429,8.75079776 28.9319802,8.519856 L29.9594307,5.90167667 C30.0161934,5.75679448 30.0132179,5.59566167 29.950962,5.45329714 C29.8889351,5.3107038 29.7726631,5.19878053 29.6280098,5.14201784 L27.8775215,4.45514346 C25.7374763,3.61537602 23.927021,2.16426518 22.6418495,0.25836612 C22.5548744,0.12950569 22.4202919,0.0404706118 22.2678566,0.0107160024 C22.1151924,-0.0188097397 21.9572639,0.0132336587 21.8284034,0.0999798892 L19.4965553,1.672627 C19.2283058,1.85367255 19.1575813,2.2178235 19.338398,2.48630194 C20.1777077,3.7305036 21.1827278,4.83096747 22.3230171,5.76503423 C20.8126259,6.53957036 19.7911262,8.04286626 19.6109962,9.71599245 C19.0605354,9.82379581 18.5659218,10.0879255 18.1743049,10.4598584 C18.1619453,10.4209485 18.1454659,10.3824964 18.1244087,10.3454175 L17.7648353,9.71667911 C17.6002693,9.42920352 17.4125862,9.15958075 17.2049903,8.90895512 C17.7678108,8.83433967 18.361988,8.59355592 18.9591407,8.04309512 C19.8044014,7.26375249 19.8680305,5.94127327 19.1012764,5.09463934 C18.4391212,4.36359073 17.3054695,4.30728583 16.5741921,4.96966983 C16.3343239,5.18687874 16.3162422,5.55743839 16.5334511,5.79730655 C16.7506599,6.03717471 17.1212196,6.05548526 17.3610878,5.83827641 C17.6133155,5.60985237 18.0042458,5.62907839 18.2326698,5.8813062 C18.5695839,6.25323917 18.5391426,6.83643008 18.1649208,7.18135503 C17.3313331,7.94994026 16.6208839,7.83183717 15.553379,7.5420728 C14.8763466,7.16807991 14.1242409,6.92935614 13.339405,6.85199405 C13.7971687,6.21638921 14.2469216,5.30063299 14.1519356,4.22763495 C14.0219307,2.75890022 12.9237556,1.44260077 10.8873939,0.314899948 C10.6353951,0.175510924 10.3195381,0.239597838 10.1421547,0.466419752 C9.89999773,0.775867995 9.71643447,1.04823735 9.57796097,1.28604559 C9.40927507,1.11713077 9.2067146,0.942265045 8.9675331,0.777241256 C8.1431007,0.208927643 6.71236039,-0.341762025 4.57895281,0.263859284 C4.30246355,0.342594635 4.12393566,0.60992862 4.15689464,0.895344284 C4.27865984,1.9424787 4.59886548,2.73830083 4.9618721,3.32973149 C4.78860851,3.33591131 4.60710523,3.35330633 4.41942212,3.384892 C2.74583814,3.66664555 1.28442763,4.90100528 0.0750160107,7.05409673 C-0.0250053369,7.23239569 -0.0250053369,7.4498334 0.0750160107,7.62813237 C1.28442763,9.78122381 2.74583814,11.0155835 4.41942212,11.2973371 C4.6073341,11.3289228 4.78860851,11.3463178 4.96210097,11.3524976 C4.59886548,11.9439283 4.27865984,12.7397504 4.15689464,13.7868848 C4.12393566,14.0723005 4.30246355,14.3398633 4.57895281,14.4181409 C5.2381325,14.6053663 5.83002089,14.6820417 6.35759351,14.6820417 C7.53839492,14.6820417 8.39784623,14.2977491 8.9675331,13.904759 C9.2067146,13.7397352 9.40927507,13.5648694 9.57796097,13.3959546 C9.71643447,13.6337629 9.89999773,13.9061322 10.1421547,14.2155805 C10.2149391,14.3085065 10.3110694,14.3737378 10.4163552,14.4092145 C10.3646278,14.6255079 10.3364753,14.8509565 10.3364753,15.0828137 C10.3364753,16.5600171 11.4479255,17.7817883 12.8782081,17.9577985 C12.7301216,18.30547 12.647953,18.6881604 12.647953,19.0893903 C12.647953,20.5688825 13.7628365,21.792027 15.1963234,21.9650617 C15.0480079,22.3129621 14.9658394,22.6956525 14.9658394,23.0971112 C14.9658394,24.5738568 16.0768318,25.7953992 17.5066566,25.9716382 C17.3590279,26.3190809 17.2773171,26.7006269 17.2773171,27.1011701 C17.2773171,28.6987653 18.577137,29.9985852 20.1747322,29.9985852 C21.7723274,29.9985852 23.0721474,28.6987653 23.0721474,27.1011701 C23.0721474,26.7008557 22.9904366,26.3190809 22.8428077,25.9716382 C24.2726326,25.7953992 25.383625,24.5738568 25.383625,23.0971112 C25.383625,22.6949659 25.3009987,22.3118176 25.1524544,21.9634595 C26.5799903,21.7849317 27.6884651,20.5647626 27.6884651,19.0893903 C27.6884651,18.6881604 27.6062966,18.3056989 27.45821,17.9577985 C28.8884926,17.7820173 29.9999428,16.560246 29.9999428,15.0830427 L29.9999428,15.0830427 Z M20.6476021,2.3100629 L22.0089912,1.39178897 C23.3996773,3.26060921 25.2698708,4.69089178 27.4495125,5.54599432 L28.6545753,6.01886417 L28.0551338,7.54619264 L26.850071,7.0733228 C24.3593788,6.09599733 22.2259712,4.45537233 20.6476021,2.3100629 Z M24.7910499,10.8338514 C25.6376838,10.8338514 26.3430977,11.4465681 26.4886665,12.2517743 C25.80019,12.4010053 25.2023506,12.7951398 24.7910499,13.3385053 C24.3799782,12.7951398 23.7819099,12.4010053 23.0936622,12.2517743 C23.2390022,11.4465681 23.9446449,10.8338514 24.7910499,10.8338514 Z M13.7319374,12.2293439 C13.8862038,11.4351239 14.5868111,10.8336225 15.4254341,10.8336225 C16.2812233,10.8336225 16.9932747,11.4600721 17.1276283,12.2785535 C16.4876747,12.4451795 15.9333229,12.8253522 15.5451393,13.3382764 C15.1111794,12.7649274 14.4689369,12.3577466 13.7319374,12.2293439 L13.7319374,12.2293439 Z M16.4549446,9.85149049 C16.1347389,9.72926762 15.7879829,9.66197639 15.4254341,9.66197639 C14.9711036,9.66197639 14.5410347,9.76726198 14.1578865,9.95448735 C14.1105079,9.21062135 13.8191414,8.56082587 13.4916114,8.05293706 C14.6724128,8.2403913 15.7410622,8.88698247 16.4549446,9.85149049 Z M20.1680946,20.8151594 C19.2168617,20.8151594 18.4427833,20.041081 18.4427833,19.0896192 C18.4427833,18.1381574 19.2168617,17.364079 20.1680946,17.364079 C21.1195564,17.364079 21.8936348,18.1381574 21.8936348,19.0896192 C21.8936348,20.041081 21.1195564,20.8151594 20.1680946,20.8151594 L20.1680946,20.8151594 Z M17.8566169,16.8085828 C16.9051552,16.8085828 16.1310768,16.0345044 16.1310768,15.0830427 C16.1310768,14.1315809 16.9051552,13.3577314 17.8566169,13.3577314 C18.8080788,13.3577314 19.5821571,14.1315809 19.5821571,15.0830427 C19.5821571,16.0345044 18.8080788,16.8085828 17.8566169,16.8085828 Z M22.4795723,16.8085828 C21.5281105,16.8085828 20.7540321,16.0345044 20.7540321,15.0830427 C20.7540321,14.1315809 21.5281105,13.3577314 22.4795723,13.3577314 C23.4310341,13.3577314 24.2051124,14.1315809 24.2051124,15.0830427 C24.2051124,16.0345044 23.4310341,16.8085828 22.4795723,16.8085828 L22.4795723,16.8085828 Z M20.1680946,10.8338514 C21.0147285,10.8338514 21.7201423,11.4465681 21.8657112,12.2517743 C21.1774635,12.4010053 20.5793953,12.7951398 20.1680946,13.3385053 C19.7570228,12.7951398 19.1589546,12.4010053 18.4707069,12.2517743 C18.6160469,11.4465681 19.3216896,10.8338514 20.1680946,10.8338514 Z M9.91075513,11.6372266 C9.63724132,11.5603223 9.34770582,11.6903272 9.22410962,11.9462171 C9.22159191,11.9517102 8.94670484,12.4955335 8.30217359,12.9402509 C7.51779558,13.4810987 6.54436109,13.6394849 5.40315628,13.4128919 C5.77165601,11.6477551 6.83206554,10.9938398 6.96184156,10.919682 C7.24039074,10.7606092 7.33926769,10.4072157 7.18385697,10.1268354 C7.02821732,9.84622626 6.67619703,9.74277167 6.39375687,9.89474921 C6.1094856,10.0476423 3.60277173,11.2442365 1.2633705,7.34111452 C3.60277173,3.43799258 6.1094856,4.63458682 6.39375687,4.78747989 C6.67619703,4.93945743 7.02844619,4.83600284 7.18385697,4.55539374 C7.33926769,4.27478458 7.24039074,3.92161995 6.96161269,3.76254706 C6.83206554,3.68838934 5.77188488,3.03470282 5.40338515,1.26979497 C8.18017958,0.724827331 9.18222429,2.65247012 9.22410962,2.73601198 C9.34770582,2.9919019 9.63747025,3.12213565 9.91075513,3.04500249 C10.168705,2.97221803 10.3421974,2.73486758 10.3376198,2.47096684 C10.3437996,2.42770819 10.3957558,2.14847235 10.7649421,1.5998426 C12.1505928,2.4526563 12.8965187,3.36772585 12.9841804,4.32468085 C13.0878639,5.45924809 12.2288704,6.41688969 11.8802833,6.75517702 L11.1650276,6.75517702 L9.66516494,5.25531436 C9.43651197,5.02666139 9.06549453,5.02643253 8.83661269,5.25531436 C8.60773085,5.4841962 8.60773085,5.8552137 8.83661269,6.08386661 L9.5079231,6.75517702 L7.0824623,6.75517702 C6.75882335,6.75517702 6.4965248,7.01747563 6.4965248,7.34111452 C6.4965248,7.66475346 6.75882335,7.92705202 7.0824623,7.92705202 L9.5079231,7.92705202 L8.60727312,8.82770206 C8.37839128,9.05635503 8.37839128,9.42737247 8.60727312,9.6562543 C8.72171398,9.77069522 8.8716316,9.82791571 9.02154921,9.82791571 C9.17146683,9.82791571 9.32161332,9.77069522 9.43582531,9.6562543 L11.1650276,7.92705202 L11.8800544,7.92705202 C12.2297859,8.2664838 13.0878639,9.22366766 12.9841804,10.3575482 C12.8965187,11.3142743 12.1505928,12.2295728 10.7649421,13.0823865 C10.3957558,12.5335279 10.3437996,12.2545209 10.3376198,12.2110334 C10.3421974,11.9473615 10.168705,11.710011 9.91075513,11.6372266 Z M11.5083503,15.0830427 C11.5083503,14.1315809 12.2824287,13.3575025 13.2338905,13.3575025 C14.1853523,13.3575025 14.9594307,14.1315809 14.9594307,15.0830427 C14.9594307,16.0345044 14.1853523,16.8085828 13.2338905,16.8085828 C12.2821999,16.8085828 11.5083503,16.0345044 11.5083503,15.0830427 Z M13.819828,19.0896192 C13.819828,18.1381574 14.5936775,17.364079 15.5453682,17.364079 C16.49683,17.364079 17.2709083,18.1381574 17.2709083,19.0896192 C17.2709083,20.041081 16.49683,20.8151594 15.5453682,20.8151594 C14.5936775,20.8151594 13.819828,20.041081 13.819828,19.0896192 L13.819828,19.0896192 Z M16.1377144,23.0973401 C16.1377144,22.1458783 16.9117927,21.3718 17.8632546,21.3718 C18.8147163,21.3718 19.5887947,22.1458783 19.5887947,23.0973401 C19.5887947,24.0488019 18.8147163,24.8228803 17.8632546,24.8228803 C16.9117927,24.8228803 16.1377144,24.0488019 16.1377144,23.0973401 L16.1377144,23.0973401 Z M20.1747322,28.8269391 C19.2232704,28.8269391 18.4491921,28.0528607 18.4491921,27.101399 C18.4491921,26.1499372 19.2232704,25.3758588 20.1747322,25.3758588 C21.126194,25.3758588 21.9002724,26.1499372 21.9002724,27.101399 C21.9002724,28.0528607 21.126194,28.8269391 20.1747322,28.8269391 L20.1747322,28.8269391 Z M22.4862099,24.8228803 C21.5347481,24.8228803 20.7606697,24.0488019 20.7606697,23.0973401 C20.7606697,22.1458783 21.5347481,21.3718 22.4862099,21.3718 C23.4376716,21.3718 24.21175,22.1458783 24.21175,23.0973401 C24.21175,24.0488019 23.4376716,24.8228803 22.4862099,24.8228803 L22.4862099,24.8228803 Z M24.7910499,20.8151594 C23.8395881,20.8151594 23.0655098,20.041081 23.0655098,19.0896192 C23.0655098,18.1381574 23.8395881,17.364079 24.7910499,17.364079 C25.7425118,17.364079 26.5165901,18.1381574 26.5165901,19.0896192 C26.5165901,20.041081 25.7425118,20.8151594 24.7910499,20.8151594 L24.7910499,20.8151594 Z M27.1025276,16.8085828 C26.1510658,16.8085828 25.3769874,16.0345044 25.3769874,15.0830427 C25.3769874,14.1315809 26.1510658,13.3577314 27.1025276,13.3577314 C28.0539894,13.3577314 28.8280678,14.1315809 28.8280678,15.0830427 C28.8280678,16.0345044 28.0539894,16.8085828 27.1025276,16.8085828 Z" id="Shape"></path>
                <path d="M4.55102919,6.75517702 C4.39630507,6.75517702 4.24570085,6.81789067 4.13675304,6.92683842 C4.02711869,7.03578618 3.96509169,7.18707706 3.96509169,7.34111452 C3.96509169,7.49515204 4.02711869,7.64644292 4.13675304,7.75539067 C4.24570085,7.86433842 4.39676281,7.92705202 4.55102919,7.92705202 C4.70506666,7.92705202 4.85567093,7.86433842 4.96507642,7.75539067 C5.07425304,7.64644292 5.13696669,7.49515204 5.13696669,7.34111452 C5.13696669,7.18707706 5.07425304,7.03578618 4.96507642,6.92683842 C4.85612867,6.81789067 4.70506666,6.75517702 4.55102919,6.75517702 Z" id="Path"></path>
            </g>
        </g>
    </g>
</svg>