<?xml version="1.0" encoding="UTF-8"?>
<svg width="54px" height="49px" viewBox="0 0 54 49" version="1.1" xmlns="http://www.w3.org/2000/svg" xmlns:xlink="http://www.w3.org/1999/xlink">
    <!-- Generator: Sketch 53.2 (72643) - https://sketchapp.com -->
    <title>Group 5</title>
    <desc>Created with Sketch.</desc>
    <g id="Page-1" stroke="none" stroke-width="1" fill="none" fill-rule="evenodd">
        <g id="Option-3" transform="translate(-622.000000, -842.000000)">
            <g id="Group-5" transform="translate(622.000000, 842.000000)">
                <g id="policy-copy" fill="#413737" fill-rule="nonzero">
                    <path d="M48.3055415,-2.52991449e-14 L13.3872723,-2.52991449e-14 C10.3568605,-2.52991449e-14 7.89136827,2.45480661 7.89136827,5.46237388 L7.66633977,36.3654709 L0.851863008,36.3654709 C0.368927126,36.3654709 0,36.7946328 0,37.2800151 L0,41.5330104 C0,45.5143463 3.17004049,48.7703983 6.99595142,48.9489297 L6.99595142,49 L36.4008097,49 L36.4008097,48.9424922 C36.6194332,48.9515047 36.7518029,49 36.9021066,49 L36.9230295,49 C41.0034318,48.9759669 44.292605,45.6332242 44.2712551,41.5321521 L44.2712551,14.5022422 L53.148137,14.5022422 C53.6310729,14.5022422 54,14.0627803 54,13.5778273 L54,5.77437468 C54.005551,2.60286748 51.4610641,0.0227455583 48.3055415,-2.52991449e-14 Z M7.37854251,47.2421525 L7.37256447,47.2421525 C4.26187687,47.2421525 1.74898785,44.6581681 1.74898785,41.5321521 L1.74898785,38.1233184 L29.51417,38.1233184 L29.51417,41.5175606 C29.5073381,43.4959974 30.2849032,45.3954684 31.6747849,46.7962531 C31.8225266,46.9456015 31.9771002,47.0224215 32.1350898,47.2421525 L7.37854251,47.2421525 Z M42.5222672,41.5312938 C42.5222672,44.6581681 40.0337171,47.2421525 36.9217485,47.2421525 L36.9038145,47.2421525 C33.776474,47.2194069 31.2558989,44.6611722 31.2631579,41.5179898 L31.2631579,37.2800151 C31.2657199,36.7877663 30.8784318,36.3826373 30.388664,36.3654709 L9.41532763,36.3654709 L9.64035612,5.4683822 C9.64035612,3.42428359 11.3210241,1.75784753 13.3872723,1.75784753 L44.1768883,1.75784753 C43.1802726,2.85650224 42.5222672,4.24655797 42.5222672,5.79797861 L42.5222672,41.5312938 Z M52.2510121,5.78982451 L52.2510566,12.7443946 L44.2712551,12.7443946 L44.2712551,5.79626186 C44.2712551,3.59637752 46.0919787,1.75784753 48.2799216,1.75784753 L48.3042605,1.75784753 C50.4977544,1.77973482 52.2612601,3.57835266 52.2510121,5.78338705 L52.2510121,5.78982451 Z" id="Shape"></path>
                    <path d="M20.5348084,21.6340561 L25.0434906,24.7321766 C25.337693,24.9360286 25.726689,24.9360286 26.0208913,24.7321766 L30.5159096,21.6349145 C32.077445,20.5641553 33.2307692,18.3256463 33.2307692,16.4274629 L33.2307692,10.1591228 C33.2401633,9.8278097 33.0582616,9.52052971 32.7644863,9.36989382 L25.8996236,5.97608076 C25.6587962,5.8559154 25.3761228,5.8559154 25.1352954,5.97608076 L18.2832426,9.36045231 C17.9894673,9.51108809 17.8079928,9.81836819 17.8178138,10.1496811 L17.8178138,16.4274629 C17.8178138,18.3256463 18.9737001,20.5641553 20.5348084,21.6340561 Z M19.5668016,10.6981502 L25.5242915,7.74379905 L31.4817814,10.7063043 L31.4817814,16.4274629 C31.4817814,17.7514276 30.6183894,19.4354593 29.529115,20.1817719 L25.5140435,22.9417128 L21.5147709,20.1822012 C20.4254966,19.4350302 19.5668016,17.7514276 19.5668016,16.4274629 L19.5668016,10.6981502 Z" id="Shape"></path>
                    <path d="M24.045167,17.7544317 C24.2082807,17.9218049 24.4311741,18.0166497 24.6643155,18.0179372 L24.6664506,18.0179372 C24.898738,18.017079 25.1212045,17.9235216 25.2847451,17.757865 L28.7635058,14.2601948 C29.105532,13.9168652 29.105532,13.3598129 28.7639328,13.0164833 C28.4227606,12.6727245 27.8685159,12.6727245 27.5269167,13.0160541 L24.6694396,15.8875771 L23.5272173,14.7284106 C23.1868991,14.3833643 22.6330813,14.3807893 22.2897741,14.7228314 C21.946467,15.0648736 21.944332,15.6214966 22.2842232,15.9665429 L24.045167,17.7544317 Z" id="Path"></path>
                    <path d="M36.4008097,27.2466368 L15.4129555,27.2466368 C14.9300196,27.2466368 14.5384615,27.6401783 14.5384615,28.1255605 C14.5384615,28.6109428 14.9300196,29.0044843 15.4129555,29.0044843 L36.4008097,29.0044843 C36.8837456,29.0044843 37.2753036,28.6109428 37.2753036,28.1255605 C37.2753036,27.6401783 36.8837456,27.2466368 36.4008097,27.2466368 Z" id="Path"></path>
                    <path d="M36.4008097,31.3116592 L15.4129555,31.3116592 C14.9300196,31.3116592 14.5384615,31.7052007 14.5384615,32.190583 C14.5384615,32.6759652 14.9300196,33.0695067 15.4129555,33.0695067 L36.4008097,33.0695067 C36.8837456,33.0695067 37.2753036,32.6759652 37.2753036,32.190583 C37.2753036,31.7052007 36.8837456,31.3116592 36.4008097,31.3116592 Z" id="Path"></path>
                </g>
                <circle id="Oval-Copy" fill="#49AB6B" opacity="0.198079427" cx="21.5" cy="24.5" r="21.5"></circle>
            </g>
        </g>
    </g>
</svg>