<?xml version="1.0" encoding="UTF-8"?>
<svg width="56px" height="56px" viewBox="0 0 56 56" version="1.1" xmlns="http://www.w3.org/2000/svg" xmlns:xlink="http://www.w3.org/1999/xlink">
    <!-- Generator: sketchtool 59.1 (101010) - https://sketch.com -->
    <title>57614939-343B-43AD-AA0B-BBAF9713CBB0</title>
    <desc>Created with sketchtool.</desc>
    <g id="Page-2" stroke="none" stroke-width="1" fill="none" fill-rule="evenodd" stroke-linejoin="round">
        <g id="Homepage---Full" transform="translate(-209.000000, -3289.000000)" stroke="#413737" stroke-width="2">
            <g id="How-it-work" transform="translate(1.000000, 3169.000000)">
                <g id="Group" transform="translate(208.000000, 120.000000)">
                    <polyline id="Stroke-38" points="10.1577 32.8251 1.50103333 47.7911 10.4843667 46.2721 13.5993667 54.8331 21.2620333 41.9647667"></polyline>
                    <polyline id="Stroke-39" points="46.2354667 33.0323 54.7918 47.7906333 45.8061333 46.2716333 42.6888 54.8326333 35.0424667 42.0366333"></polyline>
                    <path d="M49.3343667,22.1666667 C49.3343667,33.7656667 39.9310333,43.1666667 28.3343667,43.1666667 C16.7353667,43.1666667 7.33436667,33.7656667 7.33436667,22.1666667 C7.33436667,10.57 16.7353667,1.16666667 28.3343667,1.16666667 C39.9310333,1.16666667 49.3343667,10.57 49.3343667,22.1666667 L49.3343667,22.1666667 Z" id="Stroke-40"></path>
                    <polygon id="Stroke-41" points="28.3343667 10.5 31.8343667 17.5 38.8343667 17.5 33.0010333 23.3333333 35.3343667 31.5 28.3343667 27.1226667 21.3343667 31.5 23.6677 23.3333333 17.8343667 17.5 24.8343667 17.5"></polygon>
                </g>
            </g>
        </g>
    </g>
</svg>