<?xml version="1.0" encoding="UTF-8"?>
<svg width="51px" height="57px" viewBox="0 0 51 57" version="1.1" xmlns="http://www.w3.org/2000/svg" xmlns:xlink="http://www.w3.org/1999/xlink">
    <!-- Generator: Sketch 53.2 (72643) - https://sketchapp.com -->
    <title>Group 2</title>
    <desc>Created with Sketch.</desc>
    <g id="Page-1" stroke="none" stroke-width="1" fill="none" fill-rule="evenodd">
        <g id="Option-3" transform="translate(-305.000000, -842.000000)">
            <g id="Group-2" transform="translate(305.000000, 842.000000)">
                <circle id="Oval" fill="#AB4949" opacity="0.198079427" cx="29.5" cy="28.5" r="21.5"></circle>
                <g id="award-copy" fill-rule="nonzero">
                    <g id="Group">
                        <path d="M47.8260606,50.0948912 L40.1169697,36.9300377 C40.650303,36.3576527 40.9412121,35.6421715 40.9412121,34.7835941 L40.9412121,30.7768996 L44.0927273,29.0597448 C44.0927273,29.0597448 44.1412121,29.0597448 44.1412121,29.012046 L44.189697,29.012046 C44.2381818,29.012046 44.2866667,28.9643473 44.2866667,28.9643473 C45.0139394,28.5350586 45.5472727,27.8672762 45.7412121,27.1040962 C45.9351515,26.3409163 45.8866667,25.4823389 45.450303,24.7668577 C45.450303,24.719159 45.4018182,24.719159 45.4018182,24.6714603 L43.4139394,21.2371506 L45.3048485,18.1367322 L45.3533333,18.0890335 C45.3533333,18.0890335 45.3533333,18.0413347 45.4018182,18.0413347 C45.8381818,17.2781548 45.9351515,16.4195774 45.7412121,15.6563975 C45.5472727,14.8932176 45.0139394,14.1777364 44.2381818,13.7484477 L40.7472727,11.7451004 L40.7957576,8.11999582 C40.7957576,8.07229707 40.7957576,8.07229707 40.7957576,8.02459833 C40.7957576,7.16602092 40.4563636,6.35514226 39.8745455,5.78275732 C39.2927273,5.21037238 38.5169697,4.87648117 37.6442424,4.87648117 L33.5715152,4.87648117 L31.8260606,1.77606276 C31.8260606,1.72836402 31.8260606,1.72836402 31.7775758,1.68066527 C31.7775758,1.63296653 31.7290909,1.63296653 31.7290909,1.58526778 C31.2927273,0.822087866 30.5654545,0.345100418 29.789697,0.106606695 C29.0139394,-0.0841882845 28.1412121,-0.0364895397 27.3654545,0.392799163 L23.8260606,2.39614644 L20.7230303,0.583594142 L20.6745455,0.583594142 L20.6260606,0.535895397 C20.6260606,0.535895397 20.5775758,0.535895397 20.5775758,0.488196653 C19.8018182,0.0589079498 18.9290909,-0.0364895397 18.1533333,0.154305439 C17.3775758,0.345100418 16.650303,0.869786611 16.2139394,1.63296653 L14.1775758,5.06727615 L10.4927273,5.01957741 C10.4442424,5.01957741 10.4442424,5.01957741 10.3957576,5.01957741 C9.57151515,5.01957741 8.79575758,5.35346862 8.21393939,5.87815481 L8.16545455,5.92585356 C7.58363636,6.49823849 7.24424242,7.26141841 7.24424242,8.16769456 L7.24424242,12.1743891 L4.09272727,13.8915439 L4.04424242,13.8915439 C4.04424242,13.8915439 3.99575758,13.8915439 3.99575758,13.9392427 L3.94727273,13.9869414 C3.17151515,14.4162301 2.68666667,15.1317113 2.44424242,15.8948912 C2.25030303,16.6580711 2.29878788,17.5166485 2.73515152,18.2798285 L4.77151515,21.7618368 L2.92909091,24.8145565 L2.92909091,24.8622552 L2.88060606,24.909954 C2.88060606,24.909954 2.88060606,24.9576527 2.83212121,24.9576527 C2.39575758,25.7208326 2.29878788,26.57941 2.49272727,27.34259 C2.68666667,28.1057699 3.22,28.821251 3.99575758,29.2505397 L7.48666667,31.253887 L7.43818182,34.8789916 C7.43818182,34.9266904 7.43818182,34.9266904 7.43818182,34.9743891 C7.43818182,35.6421715 7.63212121,36.2145565 7.97151515,36.7392427 L0.165454545,49.9994937 C0.02,50.2379874 -0.0284848485,50.5718787 0.0684848485,50.9057699 C0.262424242,51.4304561 0.844242424,51.6689498 1.37757576,51.4781548 L8.31090909,48.7593264 L9.37757576,56.0572343 C9.42606061,56.3434268 9.57151515,56.6296192 9.86242424,56.7727155 C10.3472727,57.0589079 10.9775758,56.868113 11.2684848,56.3911255 L19.1230303,42.9877782 C19.6563636,42.9877782 20.2381818,42.8923808 20.7230303,42.6061883 C20.7715152,42.6061883 20.7715152,42.5584895 20.82,42.5584895 L24.3109091,40.602841 C24.3593939,40.6505397 27.7048485,42.6061883 27.5109091,42.4630921 C27.7048485,42.5584895 28.0442424,42.7969833 28.7230303,42.8923808 L36.6745455,56.4388243 C37.1109091,57.2974017 38.42,57.1066067 38.5654545,56.1049331 L39.6321212,48.8070251 L46.5654545,51.5258536 C47.4381818,51.8597448 48.3109091,50.9057699 47.8260606,50.0948912 Z M10.9775758,52.8614184 L10.1048485,47.1852678 C10.0078788,46.6605816 9.5230303,46.2789916 8.94121212,46.3266904 C8.84424242,46.3266904 8.74727273,46.3743891 8.65030303,46.4220879 L3.26848485,48.5208326 L9.47454545,37.9317113 C9.7169697,38.0271088 10.0078788,38.0748075 10.250303,38.0748075 L14.3230303,38.0748075 C16.6018182,42.1292008 15.9230303,40.8413347 16.1169697,41.2706234 C16.2139394,41.4614184 16.5048485,41.8907071 16.8927273,42.2245983 L10.9775758,52.8614184 Z M29.789697,40.7459372 C29.6442424,40.8413347 29.4987879,40.8890335 29.3533333,40.8890335 C29.3048485,40.8890335 29.3048485,40.8890335 29.2563636,40.8890335 C28.6745455,40.9367322 28.7715152,40.793636 24.8442424,38.551795 C24.5048485,38.361 24.1169697,38.361 23.8260606,38.551795 L19.8018182,40.8413347 C19.5109091,40.984431 19.22,41.0321297 18.9290909,40.9367322 C18.4442424,40.793636 18.2987879,40.4597448 18.250303,40.412046 C18.1533333,40.221251 18.1533333,40.2689498 18.1533333,40.221251 L16.1169697,36.6438452 C15.9230303,36.309954 15.5836364,36.119159 15.1957576,36.119159 L10.589697,36.119159 C10.3957576,36.119159 10.250303,36.0714603 10.0563636,35.9760628 C10.0078788,35.928364 9.95939394,35.928364 9.91090909,35.8806653 C9.86242424,35.8806653 9.86242424,35.8329665 9.86242424,35.8329665 C9.66848485,35.6421715 9.5230303,35.3559791 9.5230303,35.0220879 C9.5230303,34.9743891 9.5230303,34.9743891 9.5230303,34.9266904 L9.57151515,30.6815021 C9.57151515,30.2999121 9.37757576,29.9660209 9.08666667,29.8229247 L5.06242424,27.5333849 C4.77151515,27.3902887 4.57757576,27.1040962 4.52909091,26.8656025 C4.43212121,26.57941 4.48060606,26.2455188 4.62606061,26.0070251 L4.67454545,25.9593264 C4.67454545,25.9116276 4.7230303,25.9116276 4.7230303,25.8639289 L6.85636364,22.3342218 C7.05030303,22.0003305 7.05030303,21.6187406 6.85636364,21.3325481 L4.57757576,17.421251 C4.57757576,17.3735523 4.52909091,17.3735523 4.52909091,17.3258536 C4.38363636,17.0396611 4.33515152,16.7534686 4.43212121,16.4672762 C4.52909091,16.1810837 4.67454545,15.94259 4.96545455,15.7994937 C5.01393939,15.7994937 5.01393939,15.751795 5.06242424,15.751795 L5.11090909,15.751795 C5.11090909,15.751795 5.15939394,15.751795 5.15939394,15.7040962 L8.84424242,13.700749 C9.18363636,13.509954 9.37757576,13.1760628 9.37757576,12.7944728 L9.37757576,8.26309205 C9.37757576,7.92920084 9.5230303,7.64300837 9.7169697,7.45221339 L9.76545455,7.40451464 C9.95939394,7.21371967 10.250303,7.11832218 10.5412121,7.11832218 C10.589697,7.11832218 10.589697,7.11832218 10.6381818,7.11832218 L14.9533333,7.16602092 C15.3412121,7.16602092 15.6806061,6.97522594 15.8260606,6.68903347 L18.1533333,2.73003766 C18.2987879,2.44384519 18.589697,2.25305021 18.8321212,2.20535146 C19.0894545,2.12092469 19.3843636,2.14882845 19.6169697,2.25543515 C19.6324848,2.25805858 19.6435152,2.2649749 19.6527273,2.27391841 C19.6701818,2.28286192 19.6882424,2.29097071 19.7048485,2.3008682 L23.2927273,4.39961297 C23.6321212,4.59040795 24.02,4.59040795 24.3109091,4.39961297 L28.3351515,2.15777197 C28.3836364,2.15777197 28.3836364,2.11007322 28.4321212,2.11007322 C28.7230303,1.96697699 29.0139394,1.91927824 29.3048485,2.01467573 C29.5957576,2.11007322 29.8381818,2.25316946 29.9836364,2.53936192 C29.9836364,2.53936192 29.9836364,2.58706067 30.0321212,2.58706067 L30.0321212,2.63475941 C30.0321212,2.68245816 30.0806061,2.68245816 30.0806061,2.7301569 L32.1169697,6.30756276 C32.3109091,6.64145397 32.650303,6.83224895 33.0381818,6.83224895 L37.6442424,6.83224895 C37.9836364,6.83224895 38.2745455,6.97534519 38.4684848,7.16614017 C38.6624242,7.35693515 38.8078788,7.64312762 38.8078788,7.97701883 C38.8078788,8.02471757 38.8078788,8.02471757 38.8078788,8.07241632 L38.7593939,12.3176046 C38.7593939,12.6991946 38.9533333,13.0330858 39.2442424,13.176182 L43.2684848,15.4657218 C43.5593939,15.608818 43.7533333,15.8950105 43.8018182,16.1335042 C43.8987879,16.4196967 43.850303,16.7535879 43.7048485,16.9920816 L43.6563636,17.0397803 L43.6563636,17.0874791 L41.4745455,20.6648849 C41.2806061,20.9987762 41.2806061,21.3803661 41.4745455,21.6665586 L43.8018182,25.6255544 C43.9472727,25.9117469 43.9957576,26.1979393 43.8987879,26.4841318 C43.8018182,26.7703243 43.6563636,27.008818 43.3654545,27.1519142 L43.3169697,27.1519142 L43.2684848,27.1519142 C43.2684848,27.1519142 43.22,27.1519142 43.22,27.199613 L39.4866667,29.3937552 C39.1472727,29.5845502 38.9533333,29.9184414 38.9533333,30.3000314 L38.9533333,34.8314121 C38.9533333,35.1653033 38.8078788,35.4514958 38.6139394,35.6422908 C38.2745455,35.976182 37.9351515,35.976182 37.6927273,35.976182 L33.4745455,35.9284833 C33.0866667,35.8807845 32.6987879,36.0715795 32.5048485,36.4054707 C32.4586667,36.4509038 30.2135758,40.260364 30.1272727,40.4141925 C30.0793939,40.4624874 30.0328485,40.5546653 30.0806061,40.5075628 C29.9836364,40.602841 29.9836364,40.6505397 29.789697,40.7459372 Z M39.1957576,46.5174854 C38.5654545,46.2789916 37.9351515,46.6605816 37.8381818,47.2806653 L36.9654545,52.9568159 L30.8078788,42.4630921 L30.8563636,42.4153933 C31.1472727,42.2245983 31.4381818,41.9861046 31.6806061,41.6999121 C31.772,41.5650439 33.8436364,38.0845858 33.96,37.8840126 C35.0265455,37.8840126 36.3355152,37.9317113 37.9351515,37.9317113 C38.0806061,37.9317113 38.1775758,37.9317113 38.3230303,37.8840126 L44.6260606,48.6162301 L39.1957576,46.5174854 Z" id="Shape" fill="#413737"></path>
                        <path d="M19.7059152,2.31938684 C19.7041872,2.31767684 19.7018832,2.31634684 19.7001552,2.31444684 C19.6811472,2.30475684 19.6630992,2.29411684 19.6435152,2.28499684 C19.6383312,2.28404684 19.6352592,2.28119684 19.6291152,2.28119684 L19.7059152,2.31938684 Z" id="Path" fill="#000000"></path>
                        <path d="M19.7544,2.34320084 L19.6776,2.30520084 C19.6968,2.32420084 19.716,2.34320084 19.7544,2.34320084 Z" id="Path" fill="#000000"></path>
                    </g>
                    <path d="M33.8624242,11.8881967 C31.3412121,9.40786192 27.8987879,7.92920084 24.1169697,7.92920084 C20.2866667,7.92920084 16.8442424,9.45556067 14.3715152,11.8881967 C11.850303,14.3685314 10.3472727,17.7551423 10.3472727,21.4756444 C10.3472727,25.2438452 11.8987879,28.6304561 14.3715152,31.0630921 C16.8927273,33.5434268 20.3351515,35.0220879 24.1169697,35.0220879 C27.8987879,35.0220879 31.389697,33.495728 33.8624242,31.0630921 C36.3351515,28.6304561 37.8866667,25.2438452 37.8866667,21.4756444 C37.8866667,17.7074435 36.3351515,14.3208326 33.8624242,11.8881967 Z M32.4078788,29.6798285 C30.2745455,31.7785732 27.3169697,33.0664393 24.0684848,33.0664393 C20.82,33.0664393 17.8624242,31.7785732 15.7290909,29.6798285 C13.5957576,27.5810837 12.2866667,24.6714603 12.2866667,21.4756444 C12.2866667,18.2798285 13.5957576,15.370205 15.7290909,13.2714603 C17.8624242,11.1727155 20.82,9.88484937 24.0684848,9.88484937 C27.3169697,9.88484937 30.2745455,11.1727155 32.4078788,13.2714603 C34.5412121,15.370205 35.850303,18.2798285 35.850303,21.4756444 C35.850303,24.6714603 34.5412121,27.5810837 32.4078788,29.6798285 Z" id="Shape" fill="#413737"></path>
                    <path d="M31.6321212,18.3275272 C31.2442424,17.9459372 30.7593939,17.7551423 30.1775758,17.7551423 L26.9775758,17.7551423 L26.0078788,14.8455188 L26.0078788,14.7978201 C25.9109091,14.5116276 25.7169697,14.2254351 25.5230303,13.9869414 C25.3290909,13.7961464 25.0866667,13.6530502 24.7957576,13.509954 C24.7472727,13.4622552 24.650303,13.4622552 24.5533333,13.4622552 C24.0684848,13.319159 23.5351515,13.4145565 23.0987879,13.6053515 C22.6624242,13.8438452 22.3230303,14.1777364 22.1290909,14.6547238 C22.0806061,14.7024226 22.0806061,14.7978201 22.0806061,14.8455188 L21.1109091,17.7551423 L18.0563636,17.7551423 C17.7169697,17.7074435 17.3775758,17.802841 17.0381818,17.9459372 C16.7472727,18.0890335 16.4563636,18.2798285 16.2624242,18.5660209 C15.9230303,18.9953096 15.8260606,19.5676946 15.9230303,20.044682 C16.02,20.5693682 16.2624242,21.0463556 16.7472727,21.3802469 L19.3169697,23.2404979 L18.3472727,26.2455188 C18.3472727,26.2932176 18.3472727,26.2932176 18.2987879,26.3409163 C18.2018182,26.6271088 18.2018182,26.9133013 18.250303,27.1994937 C18.2987879,27.4856862 18.3957576,27.8195774 18.6381818,28.0580711 C18.9775758,28.4873598 19.4624242,28.7735523 19.9472727,28.8689498 C20.4806061,28.9643473 21.0139394,28.821251 21.450303,28.4873598 L24.02,26.6271088 L26.4927273,28.3919623 C26.7351515,28.6304561 27.0745455,28.7735523 27.4139394,28.821251 C27.7533333,28.8689498 28.0927273,28.8689498 28.4321212,28.7735523 C28.9654545,28.5827573 29.4018182,28.2488661 29.6442424,27.7718787 C29.8866667,27.2948912 29.9351515,26.770205 29.789697,26.2455188 L28.82,23.2404979 L31.3412121,21.4279456 C31.389697,21.3802469 31.4381818,21.3802469 31.4866667,21.3325481 C31.6806061,21.1417531 31.8745455,20.9509582 32.02,20.7124644 C32.1654545,20.426272 32.2624242,20.1400795 32.2624242,19.8061883 C32.2139394,19.1861046 32.02,18.7091172 31.6321212,18.3275272 Z M30.1290909,19.8061883 L27.0260606,22.0480293 C26.6381818,22.3342218 26.4927273,22.8112092 26.6866667,23.1927992 L27.8987879,26.770205 L27.8987879,26.8179038 C27.850303,26.770205 27.8018182,26.770205 27.8018182,26.7225063 L24.7472727,24.528364 C24.3593939,24.2421715 23.8745455,24.2898703 23.5351515,24.528364 L20.3836364,26.8179038 L20.3836364,26.770205 L21.5957576,23.1451004 C21.7412121,22.7158117 21.5957576,22.286523 21.2078788,22.0480293 L18.0078788,19.8061883 C18.0563636,19.8061883 18.1048485,19.8061883 18.1533333,19.8061883 L21.9351515,19.8061883 C22.3715152,19.8061883 22.7593939,19.5199958 22.9048485,19.0907071 L24.1169697,15.4179038 L24.1169697,15.4656025 L25.2806061,19.0907071 C25.4260606,19.5199958 25.8624242,19.8061883 26.2987879,19.8061883 L30.1775758,19.7584895 C30.1290909,19.7584895 30.1290909,19.8061883 30.1290909,19.8061883 Z" id="Shape" fill="#413737"></path>
                </g>
            </g>
        </g>
    </g>
</svg>