<?xml version="1.0" encoding="UTF-8"?>
<svg width="22px" height="22px" viewBox="0 0 22 22" version="1.1" xmlns="http://www.w3.org/2000/svg" xmlns:xlink="http://www.w3.org/1999/xlink">
    <!-- Generator: Sketch 53.2 (72643) - https://sketchapp.com -->
    <title>icon color</title>
    <desc>Created with Sketch.</desc>
    <defs>
        <path d="M15.2973299,14.1580442 C18.2432317,10.6035988 17.875638,5.36149898 14.462506,2.25297047 C11.049374,-0.855558032 5.79583233,-0.732937773 2.53144728,2.53144728 C-0.732937773,5.79583233 -0.855558032,11.049374 2.25297047,14.462506 C5.36149898,17.875638 10.6035988,18.2432317 14.1580442,15.2973299 L20.1216157,21.2294728 L21.2294728,20.1216157 L15.2973299,14.1580442 Z M8.65804423,15.7294728 C4.75260207,15.7294728 1.58661565,12.5634864 1.58661565,8.65804423 C1.58661565,4.75260207 4.75260207,1.58661565 8.65804423,1.58661565 C12.5634864,1.58661565 15.7294728,4.75260207 15.7294728,8.65804423 C15.7294728,10.5335037 14.9844494,12.3321492 13.6582993,13.6582993 C12.3321492,14.9844494 10.5335037,15.7294728 8.65804423,15.7294728 Z" id="path-1"></path>
    </defs>
    <g id="Page-1" stroke="none" stroke-width="1" fill="none" fill-rule="evenodd">
        <g id="Option-3-search" transform="translate(-399.000000, -29.000000)">
            <g id="icon/navigation/zoom/in/32" transform="translate(399.000000, 29.000000)">
                <mask id="mask-2" fill="white">
                    <use xlink:href="#path-1"></use>
                </mask>
                <use id="icon-color" fill="#AB4949" xlink:href="#path-1"></use>
            </g>
        </g>
    </g>
</svg>