<?xml version="1.0" encoding="UTF-8"?>
<svg width="24px" height="30px" viewBox="0 0 24 30" version="1.1" xmlns="http://www.w3.org/2000/svg" xmlns:xlink="http://www.w3.org/1999/xlink">
    <!-- Generator: Sketch 53.2 (72643) - https://sketchapp.com -->
    <title>Group 7</title>
    <desc>Created with Sketch.</desc>
    <g id="Page-1" stroke="none" stroke-width="1" fill="none" fill-rule="evenodd">
        <g id="Option-3-expand" transform="translate(-798.000000, -1341.000000)" fill="#7C6A6A" fill-rule="nonzero">
            <g id="Group-7" transform="translate(798.000000, 1341.000000)">
                <path d="M11.1411132,17.7570877 L6.92482443,15.2668533 C6.70465737,15.1368485 6.4267636,15.1709518 6.24284352,15.3506241 L3.24955596,18.2764206 C2.33868184,19.1667709 1.88022422,20.4629287 2.02297479,21.7432938 C2.15610428,22.9353104 2.79624448,24.014717 3.75611921,24.6899185 L2.13059709,27.5697098 L0.859266569,26.8189774 C0.585400221,26.6571579 0.235012364,26.7532883 0.0768232664,27.0334396 C-0.0813658888,27.3138199 0.0126078583,27.6720199 0.286474207,27.8338394 L2.05318065,28.8773117 C2.05340438,28.8773117 2.05362812,28.8775406 2.05385191,28.8775406 C2.05385191,28.8777694 2.05407564,28.8777694 2.05429937,28.8777694 L3.82100582,29.9212417 C3.91139961,29.9745712 4.0098483,29.9999771 4.10695453,29.9999771 C4.30497063,29.9999771 4.49739306,29.8949203 4.60344918,29.7067795 C4.76163827,29.4266281 4.66788832,29.0681991 4.39379818,28.9063797 L3.12269139,28.1556473 L4.74821345,25.2756271 C5.29728866,25.5434188 5.89603568,25.6791458 6.49657267,25.6791458 C7.04542409,25.6791458 7.59539423,25.5660782 8.10934117,25.3376541 C9.26454703,24.8240432 10.1324617,23.7698135 10.4309402,22.5178299 L11.4111759,18.4032211 C11.4713638,18.1503067 11.361504,17.8870926 11.1411132,17.7570877 L11.1411132,17.7570877 Z M7.65267346,24.262825 C6.81138468,24.6368179 5.83517649,24.5800552 5.04109828,24.1110763 L4.59561802,23.8478622 C3.80131608,23.3788833 3.26521823,22.5423202 3.16117588,21.6103134 C3.08264066,20.9071884 3.25783459,20.1981125 3.6370858,19.6174393 C3.96174267,19.5522079 5.04892944,19.4654617 6.18064188,20.846077 C7.30407564,22.2168503 8.46577015,22.531105 9.22181133,22.5613174 C8.94906371,23.3166275 8.38052255,23.9391861 7.65267346,24.262825 L7.65267346,24.262825 Z M9.52118481,21.3869247 C9.10479163,21.426979 8.09882504,21.3624344 7.05840139,20.0932846 C6.22695753,19.0786514 5.37515262,18.6545334 4.68108935,18.4979782 L6.72367585,16.5014419 L10.1964533,18.552452 L9.52118481,21.3869247 Z" id="Shape"></path>
                <path d="M23.8248841,29.099327 L23.3183209,28.2849655 C22.5613847,27.0682297 21.2679032,26.3419876 19.8580733,26.3419876 L18.1072529,26.3419876 C17.0500482,26.3419876 16.1901884,25.4621658 16.1901884,24.380928 L16.1901884,23.1477127 C16.1901884,22.9128799 16.0532552,22.7009354 15.8422618,22.608696 L15.8118322,22.5954208 C15.7185297,22.5546799 15.658118,22.4612961 15.658118,22.3573837 L15.658118,21.9540939 C15.658118,21.8227157 15.6149348,21.6949997 15.5355046,21.591774 L15.41222,21.4313278 C15.2952004,21.2793503 15.2667845,21.0735855 15.337936,20.894371 L15.5113399,20.4581222 C15.6373095,20.1404343 15.7013012,19.8055801 15.7013012,19.462944 L15.7013012,17.9411086 C15.7013012,17.3334274 15.0421425,17.0100174 13.950257,16.474205 C13.799004,16.3998184 13.6450661,16.3242874 13.4935894,16.2478409 C13.3626973,16.1819229 13.275436,16.0594711 13.25418,15.9118423 C13.2320291,15.7589493 13.2837146,15.610176 13.3953644,15.5035171 C14.516337,14.4344101 15.8525541,12.4756393 15.8525541,9.21453093 C15.8525541,6.40912623 17.0950214,4.10085293 18.1374587,2.65843962 C18.3254062,2.39820099 18.2717069,2.03130339 18.0173065,1.83904265 C17.7631299,1.64655298 17.4042397,1.70171355 17.2162922,1.96195218 C16.0716025,3.54581449 14.7069694,6.09006498 14.7069694,9.21453093 C14.7069694,12.0544968 13.5689921,13.7358627 12.6142636,14.6463547 C12.2287475,15.01371 12.0441562,15.5508957 12.1209014,16.0825881 C12.1965279,16.6090164 12.5202898,17.0638046 12.9870261,17.2990951 C13.1423065,17.3773727 13.2998244,17.4547348 13.4546574,17.5307235 C13.8175751,17.7087936 14.3411431,17.9658279 14.5557165,18.1207809 L14.5557165,19.462944 C14.5557165,19.6538314 14.5201407,19.8401413 14.4498841,20.0170669 L14.2764802,20.4533157 C14.0509432,21.0216293 14.1411132,21.6739426 14.5116383,22.1559677 L14.5125333,22.3573837 C14.5125333,22.8030166 14.7132344,23.2138595 15.0446037,23.4807357 L15.0446037,24.380928 C15.0446037,26.1082992 16.4184104,27.5138626 18.1070291,27.5138626 L19.8580733,27.5138626 C20.8741084,27.5138626 21.8062385,28.0373153 22.3519575,28.9141617 L22.8585207,29.7285233 C22.9677093,29.9040756 23.1529718,29.9999771 23.3422618,29.9999771 C23.4474229,29.9999771 23.5539265,29.9704513 23.6492427,29.9084244 C23.9161729,29.7344742 23.9949318,29.3723831 23.8248841,29.099327 L23.8248841,29.099327 Z" id="Path"></path>
                <path d="M19.1351466,1.19588466 C19.2734223,1.19588466 19.4119217,1.14507293 19.5220052,1.0418472 L19.5412475,1.02399439 C19.7777481,0.809989917 19.7996753,0.440574605 19.5906956,0.198188726 C19.3817159,-0.0444259614 19.0194694,-0.0673142036 18.7822976,0.146232593 C18.7822976,0.146232593 18.770439,0.156761128 18.7480643,0.177818257 C18.5149199,0.396400425 18.4990339,0.767189 18.7127123,1.00568384 C18.8257045,1.13179775 18.98009,1.19588466 19.1351466,1.19588466 L19.1351466,1.19588466 Z" id="Path"></path>
            </g>
        </g>
    </g>
</svg>