<?xml version="1.0" encoding="UTF-8"?>
<svg width="57px" height="56px" viewBox="0 0 57 56" version="1.1" xmlns="http://www.w3.org/2000/svg" xmlns:xlink="http://www.w3.org/1999/xlink">
    <!-- Generator: Sketch 53.2 (72643) - https://sketchapp.com -->
    <title>Group 6</title>
    <desc>Created with Sketch.</desc>
    <g id="Page-1" stroke="none" stroke-width="1" fill="none" fill-rule="evenodd">
        <g id="Option-3" transform="translate(-910.000000, -841.000000)">
            <g id="Group-6" transform="translate(910.000000, 842.000000)">
                <g id="help-copy" transform="translate(2.000000, 0.000000)" fill-rule="nonzero">
                    <path d="M54,36.5449219 C54,28.6739044 48.6964875,21.7970124 41.2176819,19.7247162 C40.7476043,8.76873779 31.6888275,0 20.6191406,0 C9.249527,0 0,9.249527 0,20.6191406 C0,24.3245544 0.986297555,27.9323273 2.85919189,31.0996857 L0.0758056641,41.1620636 L10.1385956,38.3790894 C13.0501099,40.1007843 16.3344727,41.0706024 19.7243042,41.2168579 C21.7961883,48.6960755 28.6734925,54 36.5449219,54 C39.686737,54 42.7420349,53.1632538 45.4265442,51.5733948 L53.9237824,53.9237824 L51.5733948,45.4265442 C53.1632538,42.7420349 54,39.686737 54,36.5449219 Z M10.6379242,34.9579468 L4.61384585,36.6244354 L6.28033447,30.6003571 L5.90048212,30.0062713 C4.11039731,27.2055817 3.1640625,23.9595337 3.1640625,20.6191406 C3.1640625,10.9942933 10.9942933,3.1640625 20.6191406,3.1640625 C30.243988,3.1640625 38.0742188,10.9942933 38.0742188,20.6191406 C38.0742188,30.243988 30.243988,38.0742188 20.6191406,38.0742188 C17.2787476,38.0742188 14.0331116,37.1278839 11.2320099,35.3377991 L10.6379242,34.9579468 Z M49.3861541,49.3861541 L44.9160919,48.1493683 L44.3191224,48.5378724 C42.0049896,50.041214 39.3163605,50.8359375 36.5449219,50.8359375 C30.3585205,50.8359375 24.922348,46.8359528 22.9963073,41.1002655 C32.4695435,40.0080872 40.0080872,32.4695435 41.1006774,22.9958954 C46.8359528,24.922348 50.8359375,30.3585205 50.8359375,36.5449219 C50.8359375,39.3163605 50.041214,42.0049896 48.5378724,44.3191224 L48.1493683,44.9160919 L49.3861541,49.3861541 Z" id="Shape" stroke="#FCFAF7" stroke-width="0.95" fill="#413737"></path>
                    <polygon id="Path" fill="#000000" points="19.0371094 28.5820312 22.2011719 28.5820312 22.2011719 31.7460938 19.0371094 31.7460938"></polygon>
                    <path d="M23.7832031,15.8203125 C23.7832031,16.7188568 23.4173584,17.5481872 22.7532349,18.1558685 L19.0371094,21.5572357 L19.0371094,25.4179688 L22.2011719,25.4179688 L22.2011719,22.9505768 L24.889389,20.4901886 C26.1970368,19.2933655 26.9472656,17.5914459 26.9472656,15.8203125 C26.9472656,12.33078 24.1086731,9.4921875 20.6191406,9.4921875 C17.1296081,9.4921875 14.2910156,12.33078 14.2910156,15.8203125 L17.4550781,15.8203125 C17.4550781,14.0755462 18.8743744,12.65625 20.6191406,12.65625 C22.3639069,12.65625 23.7832031,14.0755462 23.7832031,15.8203125 Z" id="Path" stroke="#FCFAF7" stroke-width="0.678571429" fill="#413737"></path>
                </g>
                <circle id="Oval-Copy-4" fill="#494EAB" opacity="0.198079427" cx="21.5" cy="32.5" r="21.5"></circle>
            </g>
        </g>
    </g>
</svg>