<?xml version="1.0" encoding="UTF-8"?>
<svg width="16px" height="16px" viewBox="0 0 16 16" version="1.1" xmlns="http://www.w3.org/2000/svg" xmlns:xlink="http://www.w3.org/1999/xlink">
    <!-- Generator: sketchtool 59.1 (101010) - https://sketch.com -->
    <title>EBA24A80-C262-4E68-AD95-122A04C5886A</title>
    <desc>Created with sketchtool.</desc>
    <g id="Page-2" stroke="none" stroke-width="1" fill="none" fill-rule="evenodd">
        <g id="Detailpage" transform="translate(-1051.000000, -28.000000)">
            <g id="Header">
                <g id="Icon/Telegram---red" transform="translate(1049.000000, 26.000000)">
                    <g id="Group-11">
                        <rect id="Rectangle-Copy-2" x="0" y="0" width="20" height="20"></rect>
                        <g id="iconfinder_social-56_1591869" transform="translate(2.000000, 2.000000)">
                            <circle id="Oval" fill="#AB4949" fill-rule="nonzero" cx="8" cy="8" r="8"></circle>
                            <path d="M8.26204444,9.91182222 C7.95395556,10.2119111 7.64853333,10.5070222 7.34595556,10.8044444 C7.24017778,10.9086222 7.12124444,10.9662222 6.96942222,10.9582222 C6.86577778,10.9527111 6.80782222,10.9072 6.776,10.8088889 C6.54417778,10.0894222 6.30897778,9.37173333 6.0784,8.65155556 C6.056,8.58168889 6.02293333,8.54773333 5.95217778,8.52586667 C5.40604444,8.35911111 4.86097778,8.18844444 4.3168,8.01546667 C4.23306667,7.9888 4.14862222,7.95395556 4.07626667,7.90471111 C3.96444444,7.82897778 3.94808889,7.70542222 4.04835556,7.61653333 C4.14097778,7.53457778 4.25155556,7.46311111 4.3664,7.4176 C5.03395556,7.15306667 5.70506667,6.89706667 6.37511111,6.63875556 C8.07555556,5.98222222 9.776,5.32622222 11.4766222,4.66968889 C11.8,4.54471111 12.0485333,4.72071111 12.0149333,5.0704 C11.9934222,5.29404444 11.9354667,5.51413333 11.8887111,5.73493333 C11.5194667,7.4784 11.1498667,9.22204444 10.7786667,10.9651556 C10.6904889,11.3790222 10.3998222,11.4871111 10.0592,11.2359111 C9.48871111,10.8154667 8.91875556,10.3936 8.34862222,9.97244444 C8.32142222,9.95271111 8.29315556,9.93368889 8.26204444,9.91182222 Z M6.98151111,10.4412444 C6.98791111,10.4394667 6.99431111,10.4376889 7.00071111,10.4360889 C7.00426667,10.4197333 7.00942222,10.4037333 7.01084444,10.3875556 C7.04746667,9.99235556 7.08622222,9.59733333 7.11804444,9.20142222 C7.12515556,9.11324444 7.15537778,9.05066667 7.22168889,8.99128889 C7.74755556,8.52106667 8.27022222,8.04782222 8.79395556,7.57564444 C9.37368889,7.0528 9.9536,6.53048889 10.5312,6.00551111 C10.5669333,5.97315556 10.5818667,5.91804444 10.6064,5.87324444 C10.552,5.86737778 10.4936889,5.84551111 10.4442667,5.85831111 C10.3768889,5.87573333 10.3130667,5.91484444 10.2529778,5.95271111 C8.97351111,6.75857778 7.69511111,7.56586667 6.41475556,8.37013333 C6.3424,8.41564444 6.32888889,8.45422222 6.35644444,8.53368889 C6.45084444,8.8048 6.53671111,9.0784 6.62577778,9.35146667 C6.74435556,9.71484444 6.86293333,10.0780444 6.98151111,10.4412444 Z" id="Shape" fill="#FFFFFF"></path>
                        </g>
                    </g>
                </g>
            </g>
        </g>
    </g>
</svg>