<?xml version="1.0" encoding="UTF-8"?>
<svg width="18px" height="15px" viewBox="0 0 18 15" version="1.1" xmlns="http://www.w3.org/2000/svg" xmlns:xlink="http://www.w3.org/1999/xlink">
    <!-- Generator: sketchtool 59.1 (101010) - https://sketch.com -->
    <title>D099AC7E-979C-422D-B450-68194814BB4B</title>
    <desc>Created with sketchtool.</desc>
    <defs>
        <path d="M17.5909091,2.0625 C16.9574197,2.38012235 16.2700071,2.5710703 15.5659091,2.625 C16.314147,2.18803661 16.8647769,1.47017831 17.1,0.625 C16.4186718,1.04420305 15.6712944,1.34023218 14.8909091,1.5 C13.9048177,0.434240039 12.3809966,0.0873508938 11.0432477,0.624101974 C9.70549886,1.16085305 8.82338751,2.4730855 8.81590909,3.9375 C8.81590909,4.25 8.87727273,4.5 8.87727273,4.75 C6.04319925,4.63144035 3.40007372,3.26259003 1.63636364,1 C1.31694455,1.57152106 1.14784866,2.2173734 1.14545455,2.875 C1.13387448,4.08828542 1.73683135,5.22205048 2.74090909,5.875 C2.18322224,5.85547555 1.63738191,5.70579711 1.14545455,5.4375 L1.14545455,5.5 C1.14335678,7.20413603 2.32648009,8.67113273 3.96818182,9 C3.66612319,9.07226816 3.35782425,9.11413592 3.04772727,9.125 C2.82098941,9.13527198 2.59392948,9.11424791 2.37272727,9.0625 C2.84718575,10.5256114 4.17393938,11.5265915 5.68636364,11.5625 C4.44116815,12.5550301 2.91059062,13.1039462 1.32954545,13.125 C1.04181472,13.1353272 0.753823018,13.1143754 0.470454545,13.0625 C2.08367547,14.1126782 3.95590749,14.6760814 5.87045455,14.6875 C12.375,14.6875 15.8727273,9.1875 15.8727273,4.5 L15.8727273,4.0625 C16.5257015,3.47202726 17.1029806,2.80006216 17.5909091,2.0625 Z" id="path-1"></path>
    </defs>
    <g id="Page-2" stroke="none" stroke-width="1" fill="none" fill-rule="evenodd">
        <g id="Detailpage" transform="translate(-1022.000000, -29.000000)">
            <g id="Header">
                <g id="Icon/Twister---red" transform="translate(1021.000000, 26.000000)">
                    <g id="Group-6">
                        <g id="icon/social/twitter/24-copy-2" transform="translate(1.000000, 3.000000)">
                            <mask id="mask-2" fill="white">
                                <use xlink:href="#path-1"></use>
                            </mask>
                            <use id="icon-color" fill="#AB4949" xlink:href="#path-1"></use>
                        </g>
                        <rect id="Rectangle-Copy" x="0" y="0" width="20" height="20"></rect>
                    </g>
                </g>
            </g>
        </g>
    </g>
</svg>